<svg id="Layer_1" data-name="Layer 1" xmlns="http://www.w3.org/2000/svg" viewBox="0 0 571.24 291.21"><defs><style>.cls-1{fill:#9b9b9b;}.cls-2{fill:#4a4a4a;}.cls-3{fill:#fff;}</style></defs><path class="cls-1" d="M367.94,31.19h0c1.17.46,1.94-.32,2.56-.91,3.08-2.93,15-16.89,17.19-20.08,1.09-1.61.73-2.79-.35-3.72-1.43-1.23-3.88-2.41-8-4S372.58.06,370.69,0a2.53,2.53,0,0,0-2.82,2.49c-.59,3.81-1.43,22.09-1.18,26.31C366.74,29.65,366.77,30.73,367.94,31.19Z"/><path class="cls-1" d="M406.15,36.87c-.71-4.3-1.35-6.88-2.26-8.48-.69-1.22-1.78-1.79-3.59-1-3.61,1.51-19.92,10.43-23.46,12.86-.71.49-1.64,1.08-1.44,2.3v0c.2,1.21,1.27,1.44,2.1,1.65,4.1,1,22.3,3.58,26.19,3.71,1.95.07,2.79-.86,3.05-2.25C407.08,43.83,406.85,41.17,406.15,36.87Z"/><path class="cls-1" d="M200.71,30.29c.62.59,1.39,1.37,2.56.91h0c1.17-.46,1.2-1.54,1.25-2.39.25-4.22-.59-22.5-1.18-26.31A2.53,2.53,0,0,0,200.55,0c-1.89.06-4.49.85-8.64,2.47s-6.61,2.79-8,4c-1.08.93-1.45,2.11-.35,3.72C185.7,13.4,197.63,27.36,200.71,30.29Z"/><path class="cls-1" d="M195.83,42.55v0c.2-1.22-.73-1.81-1.44-2.3-3.55-2.43-19.85-11.35-23.46-12.86-1.82-.76-2.91-.19-3.59,1-.91,1.6-1.55,4.18-2.26,8.48s-.93,7-.59,8.79c.26,1.39,1.1,2.32,3.05,2.25,3.89-.13,22.08-2.7,26.19-3.71C194.57,44,195.63,43.76,195.83,42.55Z"/><path class="cls-2" d="M382.52,141.18a12.1,12.1,0,0,0-17.07-1.38l-.64.54c-2.74-2.63-5.88-5.73-6.59-6.92a37.71,37.71,0,0,1-4.06-10.18c3.82-4.8,6.93-9.17,9.16-12.48,3.78-5.59,4.07-10.45,3.64-13.54a14.78,14.78,0,0,0-9.18-11.89,22.3,22.3,0,0,0,2-4.93,15.62,15.62,0,0,0-7.59-17.59,15,15,0,0,0-3.82-1.44A16.64,16.64,0,0,0,343,42.54a15.24,15.24,0,0,0-10.26-3.19,15.72,15.72,0,0,0-6.55-11.26c-6.77-5-17.52-5.22-25,4.18-.4.51-.81,1-1.21,1.48l-.32-.21c-5-3.36-9-6-13.19-7.92a15.62,15.62,0,0,0-19.34,5.23l-.2-.24c-9.07-10.82-20.19-10.4-26.68-5.42a15.12,15.12,0,0,0-5.92,14.41,15.92,15.92,0,0,0-13.17,20.2,14.8,14.8,0,0,0-4.93,1.72,15.79,15.79,0,0,0-7.2,18.36,24.51,24.51,0,0,0,2.16,4.91,14.42,14.42,0,0,0-6.33,4.61c-3.76,4.73-5.51,13,.84,21.87,3.05,4.28,6,8.1,9,11.65.13.15.28.29.42.44a37.22,37.22,0,0,1-4,10.06,52.44,52.44,0,0,1-5.75,6.11,12.07,12.07,0,0,0-16.72,1.65l-13.06,15.33A12.12,12.12,0,0,0,177,173.58l59.69,50.81a12,12,0,0,0,7.83,2.88c.33,0,.66,0,1,0A12,12,0,0,0,253.8,223l13.05-15.34a12.09,12.09,0,0,0-.6-16.34,88.22,88.22,0,0,1,7.89-7.2,70.19,70.19,0,0,1,10.57-6.74,70.22,70.22,0,0,1,10.57,6.74,95.41,95.41,0,0,1,8.84,8.17,12.13,12.13,0,0,0,.26,15.37L317.44,223a12,12,0,0,0,8.25,4.22c.33,0,.66,0,1,0a12,12,0,0,0,7.83-2.88h0l59.69-50.81a12.12,12.12,0,0,0,1.37-17.07Z"/><path class="cls-3" d="M267.73,175.86a100.23,100.23,0,0,0-9.43,8.63l-44.84-38.16c3.68-3.59,5.62-5.71,6.71-7.53a44.88,44.88,0,0,0,4.75-11.26h.3a16.5,16.5,0,0,0,10.7-4.16,15.6,15.6,0,0,0,5.41-9.46h0a15.93,15.93,0,0,0,10.71-4.44,18.75,18.75,0,0,0,5.84-10.55,15.21,15.21,0,0,0,3,.3,16.72,16.72,0,0,0,11.5-4.7,15.85,15.85,0,0,0,4.73-13.7,17.28,17.28,0,0,0,10.3-5.22,15.88,15.88,0,0,0,3.42-17.23c6.54-6.26,12.73-12.22,18.6-19.62,3.49-4.4,7.8-4.32,10.52-2.29,2.31,1.72,3.74,5.06.81,9.25a85.43,85.43,0,0,1-9.2,10.92c-1.55,1.63-3.31,3.49-5.37,5.77a5.23,5.23,0,0,0,7.76,7c2-2.19,3.7-4,5.21-5.6a97.58,97.58,0,0,0,9.62-11.32,4.93,4.93,0,0,0,.64-.58c2.63-2.86,5.46-2.43,7.24-1.08,2.08,1.59,3.47,5.12.52,9.82a65.23,65.23,0,0,1-4.38,6l-.26.25a5.73,5.73,0,0,0-.64.85c-3.25,3.93-7.12,8.11-10.76,12a5.23,5.23,0,1,0,7.6,7.19c4-4.21,8.24-8.82,11.82-13.22,2.24-2.21,4.57-2.84,6.6-1.73a5.15,5.15,0,0,1,2.48,5.81c-1.17,4.54-7.77,11.37-13.07,16.86-.89.91-1.75,1.8-2.6,2.69a5.23,5.23,0,0,0,7.58,7.22c.82-.87,1.67-1.75,2.54-2.64,1.38-1.42,2.76-2.86,4.11-4.3a4.74,4.74,0,0,0,.85-.88c.09-.12.18-.22.28-.33l.23-.26a3.76,3.76,0,0,1,5.19-.64c1.93,1.38,3.06,4.67-.12,9.39A183,183,0,0,1,339,125c-14.52,16-29.29,28.8-38.57,33.33-3.47,1.7-6.57,3.13-9.57,4.51C282.15,166.83,275.3,170,267.73,175.86Z"/><path class="cls-3" d="M301.68,175.86c-1.8-1.4-3.64-2.69-5.58-3.94,2.69-1.24,5.67-2.62,8.89-4.2,10.43-5.1,25.79-18.2,41.2-35.13a40.83,40.83,0,0,0,3.06,6.21c1.17,1.95,3.32,4.26,7.56,8.36L312,185.34A104.08,104.08,0,0,0,301.68,175.86Z"/><path class="cls-3" d="M275.16,37.71c.46-.75,3-4.42,7-2.56A79.69,79.69,0,0,1,293,41.63c-2.67,2.75-5.85,6-8.81,8.81a55.19,55.19,0,0,1-8-4.86C272.36,42.57,274.86,38.2,275.16,37.71Z"/><path class="cls-3" d="M246.67,33.49c2.75-2.11,7.62-1.73,12.3,3.84,1.43,1.71,3,3.46,4.66,5.35a15.68,15.68,0,0,0,6,11.09,87.12,87.12,0,0,0,10.19,6.15c2.25,3.14,2.32,6.13.11,8.4a7.38,7.38,0,0,1-10.42.12c-6.82-6.22-18.26-19.11-23.09-26C243.49,38.21,244.72,35,246.67,33.49Z"/><path class="cls-3" d="M233.37,50.93c1.87-1.33,5.13-1.57,7.87,2a220.37,220.37,0,0,0,21.22,23.24c.45.41,1.83,1.81,2.1,2.1,4.15,4.6,1.47,7.87.55,8.77A5.61,5.61,0,0,1,257,87c-8.1-7.76-21.34-22.22-24.3-26.93C229.91,55.67,231.22,52.46,233.37,50.93Z"/><path class="cls-3" d="M221.42,70.65c2.38-1.35,5.21-1.37,8.48,2.65,3,3.71,12.25,13.75,16,18,3,3.43,4.28,8,1.25,10.31-3.82,2.94-7.66,1.6-10.14-1.4-7.49-7.81-16.57-18.91-17.85-23.28A5.3,5.3,0,0,1,221.42,70.65Z"/><path class="cls-3" d="M214.28,105.19c-2.53-3.54-3-7.07-1.17-9.28,1-1.16,4.17-2.12,5.78-.15,3.41,4.14,7.5,8.78,10.49,11.87,2.87,3.79,1.49,6.31-.24,7.78-1.92,1.63-5,2.33-6.38.72C219.93,112.81,217.16,109.23,214.28,105.19Z"/><path class="cls-1" d="M258.88,200.89l-13,15.34a1.65,1.65,0,0,1-1.12.57,1.6,1.6,0,0,1-1.2-.38l-59.69-50.81a1.64,1.64,0,0,1-.19-2.31L196.69,148a1.63,1.63,0,0,1,1.12-.57h.13a1.68,1.68,0,0,1,1.07.39l59.69,50.81a1.63,1.63,0,0,1,.18,2.31Z"/><path class="cls-1" d="M387.42,165.61l-59.69,50.81h0a1.66,1.66,0,0,1-2.32-.19l-13.06-15.34a1.64,1.64,0,0,1,.19-2.31l59.69-50.81a1.68,1.68,0,0,1,1.07-.39h.13a1.65,1.65,0,0,1,1.12.57L387.6,163.3A1.63,1.63,0,0,1,387.42,165.61Z"/><path class="cls-3" d="M142.19,150.22s-63.65-16.06-135,11.87a3.64,3.64,0,0,0-.07,6.74l41.61,17.56a6.52,6.52,0,0,1,2.58,10.05L21.06,234.71a2.22,2.22,0,0,0,2.65,3.41c56.43-25,117.23,1.07,117.23,1.07"/><path class="cls-2" d="M139,243.65A167,167,0,0,0,102.48,234c-19.59-2.95-48.82-3.87-76.8,8.52a7.07,7.07,0,0,1-8.43-10.84l30.22-38.28a1.64,1.64,0,0,0,.3-1.45,1.61,1.61,0,0,0-1-1.12L5.19,173.3a8.5,8.5,0,0,1,.19-15.73c37.63-14.72,73.06-17.23,96.16-16.74,25.1.53,41.16,4.52,41.83,4.69L141,154.93l1.19-4.71L141,154.93c-.15,0-15.89-3.93-40-4.41-21.57-.42-54.34,1.87-89.3,15l38.85,16.39a11.37,11.37,0,0,1,4.5,17.52L30.9,230.07c17-5.92,41.63-10.42,73.32-5.59,22.6,3.45,38,10,38.63,10.25Z"/><path class="cls-3" d="M106.4,166.82,138.11,151a7,7,0,0,1,10.15,6.27v16.84"/><path class="cls-2" d="M153.11,174.08h-9.7V157.24a2.16,2.16,0,0,0-3.13-1.93l-31.71,15.85-4.34-8.68L136,146.63a11.86,11.86,0,0,1,17.16,10.61Z"/><path class="cls-3" d="M429.05,150.22s63.65-16.06,135,11.87a3.64,3.64,0,0,1,.07,6.74l-41.61,17.56A6.52,6.52,0,0,0,520,196.44l30.22,38.27a2.22,2.22,0,0,1-2.65,3.41c-56.43-25-117.23,1.07-117.23,1.07"/><path class="cls-2" d="M432.2,243.65l-3.82-8.92c.65-.27,16-6.8,38.64-10.25,18.83-2.87,46-4,73.3,5.58l-24.16-30.62a11.37,11.37,0,0,1,4.5-17.52l38.84-16.39c-68-25.57-128.65-10.76-129.26-10.6l-2.37-9.41c.67-.17,16.73-4.16,41.83-4.69,23.1-.48,58.53,2,96.16,16.74a8.5,8.5,0,0,1,.19,15.73l-41.62,17.56a1.66,1.66,0,0,0-.66,2.57L554,231.71a7.07,7.07,0,0,1-8.43,10.84c-28-12.39-57.21-11.47-76.8-8.52A166.94,166.94,0,0,0,432.2,243.65Z"/><path class="cls-3" d="M464.84,166.82,433.12,151A7,7,0,0,0,423,157.24v16.84"/><path class="cls-2" d="M427.83,174.08h-9.7V157.24a11.86,11.86,0,0,1,17.16-10.61L467,162.48l-4.34,8.68L431,155.31a2.16,2.16,0,0,0-3.13,1.93Z"/><path class="cls-3" d="M471.56,236.68a29.66,29.66,0,0,1-20.43,28.18c-28.92,9.5-87.2,21.5-166.21,21.5-78.81,0-136.34-11.93-164.92-21.42a29.67,29.67,0,0,1-20.32-28.15V177.85A12.41,12.41,0,0,1,116,166.08c27.88,9.28,89.55,26.14,169.62,26.14s141.73-16.86,169.62-26.14a12.41,12.41,0,0,1,16.32,11.77Z"/><path class="cls-2" d="M284.92,291.21c-93.92,0-151.15-16.59-166.45-21.67a34.47,34.47,0,0,1-23.64-32.75V177.85a17.24,17.24,0,0,1,22.7-16.37c29.05,9.67,89.52,25.89,168.09,25.89s139-16.22,168.09-25.89a17.25,17.25,0,0,1,22.7,16.37v58.83a34.44,34.44,0,0,1-23.77,32.79C437.1,274.57,379.1,291.21,284.92,291.21ZM112.06,170.29a7.57,7.57,0,0,0-7.53,7.56v58.94a24.77,24.77,0,0,0,17,23.54c14.95,5,70.92,21.18,163.39,21.18,92.74,0,149.51-16.27,164.7-21.25a24.78,24.78,0,0,0,17.09-23.58V177.85a7.55,7.55,0,0,0-9.94-7.16c-29.61,9.85-91.22,26.38-171.15,26.38s-141.55-16.53-171.16-26.38A7.41,7.41,0,0,0,112.06,170.29Z"/><path class="cls-2" d="M130.55,233.52a19,19,0,0,1,.32-5.36c.16-1,.31-2,.38-2.9a10.54,10.54,0,0,1,.17-2,13.8,13.8,0,0,1,1.63-4.54c1.42-2.74,2.58-6.67,3.39-6.54.6.09.75.57.62,1.39s-.54,2-.77,3.45c-.31,1.93-.47,3.43-.68,4.77-.27,1.71-.57,2.65-.72,3.61-.18,1.12-.26,2.1-.49,3.58-.38,2.38,0,3-.41,5.49s0,2.66-.27,4.07l-.21,1.34c-.15,1-.06,1.82-.18,2.63C131.77,242.24,130.85,236.46,130.55,233.52Zm49.21-26.71a8.83,8.83,0,0,1,1.73,6.9c-.45,1.9-1.74,4.29-3.91,5a8.74,8.74,0,0,1-3.92.68,5,5,0,0,1-3.8-2.43,4.16,4.16,0,0,1-.54-2.83,3.05,3.05,0,0,1,1.49-2.2,2.92,2.92,0,0,1,1.73-.33,2.22,2.22,0,0,1,1.64,1.17,1.74,1.74,0,0,1,.13,1.08,4,4,0,0,1-.72,1.64,6.64,6.64,0,0,0,1,.24,2.52,2.52,0,0,0,1.55-.14c.91-.46,1.63-2.63,1.79-3.67.51-3.19-3-5.87-6-7a17.74,17.74,0,0,0-3.89-.92l-1.49-.24c-.22,0-1-.22-1.92-.38-1.78-.28-4.11-.49-5.46.36-1.16.58-2.81.47-4.05,2s-3.23,2.62-3.69,5.51-1.45,4.42-1.76,6.35c-.28,1.78-.12,4.62-.59,7.59-.44,1.83-1.24,3.53-1.59,5.76a12.41,12.41,0,0,0-.2,1.72,62.41,62.41,0,0,1-.52,8.14c-.42,3.59.67,5.82.95,7.46s2.82,3.34,4.5,4.29a46.31,46.31,0,0,0,7.33,2.22,12.11,12.11,0,0,0,6.55-.48c2.45-.53,4.15-1.18,5.33-2.44a29.38,29.38,0,0,1,3.26-2.76,4.26,4.26,0,0,1,2.37-1.07c1,.17,1.28,3.48,1.15,4.3-.2,1.26-.51,1.82-1.34,2.22a34,34,0,0,1-6.6,2.76c-2.05.44-6.3.84-8,1.17a8,8,0,0,1-2-.17c-1.7-.27-3.91-.77-6.14-1.12s-3.22-1.73-5.64-2.34a24.85,24.85,0,0,1-6.9-3.07,22,22,0,0,1-5.46-7.33,4.8,4.8,0,0,1-.09-1.84,24,24,0,0,0,.34-2.69c0-2.52-.23-3.31-.3-5.75,0-.83.08-1.51.18-2.11s.28-1.32.38-1.92.07-1.43.2-2.25c.22-1.41.92-2.44,1.53-6.3.38-2.45.38-5.35.76-7.72a12,12,0,0,1,.52-2.36,14,14,0,0,1,4.84-5.09,57.42,57.42,0,0,1,6.57-4c2.54-1.12,7.21-1.76,9.76-2a34.1,34.1,0,0,1,5.82.31,28.11,28.11,0,0,1,3.65,1,15.74,15.74,0,0,0,3.16.73C175.24,202.67,178.24,204.89,179.76,206.81Z"/><path class="cls-2" d="M195.47,213a4,4,0,0,1-.16,1,12.7,12.7,0,0,0-.31,1.79c-.18,1.94,0,4.37-.15,5.87,0,.3-.12.52-.14.74a13,13,0,0,0-.45,2.46c-.1,1-.12,2.1-.21,3.15-.16,1.72-.4,2.76-.6,4.93-.12,1.35-.21,3.15-.37,4.95-.08.9-.16,1.79-.32,2.69-.13.66-.25,1.18-.3,1.71-.1,1.12.06,1.81,0,2.86,0,.3-.13.59-.16.89-.13.67-.19,1.27-.24,1.79-.1,1.2-.12,2.26-.29,4.05-.21,2.4-.14,3.24-.27,4.74l-.1,1.12c-.36,2.31-.14,3.16-.87,3.77a2.42,2.42,0,0,1-1.78.52,1.17,1.17,0,0,1-1.19-1.09,48.83,48.83,0,0,1,.82-5.74,4.43,4.43,0,0,0,.17-1c.12-1.35.06-3.16.19-4.59s.54-2.67.65-3.94a10.47,10.47,0,0,0,0-1.36,2.13,2.13,0,0,1,0-.76c.11-1.27.84-2.64.95-3.84,0-.15-.05-.3,0-.45.07-.75.15-1.58.21-2.25a15.33,15.33,0,0,0,.09-1.88c0-1.29.07-5,.27-7.22.43-4.72.91-6.64,1.07-8.51a12.48,12.48,0,0,0,.08-1.66,22.51,22.51,0,0,1,0-2.71,11.76,11.76,0,0,1,.42-2.16c.38-1.77.7-1.9,1.53-2C195.21,210.93,195.56,212,195.47,213Zm17.12,50.46a16.63,16.63,0,0,0-3.42-.53c-1.28-.12-2.78-.18-4.28-.31-1.8-.09-2.48-.15-3.23-.22-.6,0-.89-.15-2.39-.29s-2.65.14-4.3,0c-1.26-.26-2.06-.56-1.93-2.06.11-1.2.08-1.65.12-2.1.15-.82.42-3.06.68-5.91.15-1.64.18-2.85.37-4.87.21-2.4.84-6,1-8,.16-1.79.08-3.39.23-5.11.13-1.42.34-3.74.78-6.12.12-1.27.43-2.23.62-4.4l.09-.9c.16-1.87-.16-4.09,0-5.66l.36-4c.13-1.5,1.06-1.72,2-1.63.67.06,1.33.27,1.86.32a24.45,24.45,0,0,0,2.71.09c1.05,0,2.13-.18,3-.11,1,.09,1.6.67,1.41,2.85-.06.6-.51,2.22-.65,3.86-.29,3.15-1.45,5.16-1.74,8.38s.32,3.95.09,6.5c-.25,2.77-.84,4.3-1.17,8a41.19,41.19,0,0,1-.26,4.51c-.3,3.37-.78,7-1.15,7.75a5,5,0,0,0-.17,1,14.52,14.52,0,0,0,.11,3,3.77,3.77,0,0,0,2.56,2.57,4.46,4.46,0,0,0,1.48.36c1.12.1,2.5-.08,3.62,0,1.57.15,2.94,0,4.21.16s2.36-.17,4.51-1.41a1.14,1.14,0,0,1,.77-.15,1.44,1.44,0,0,1,1.29.79,1,1,0,0,1,.1.46c-.06.75-1.32,1.24-2.23,2.14-1.09,1.19-1.91,1.94-3.33,1.82A8.38,8.38,0,0,1,212.59,263.46Z"/><path class="cls-2" d="M264.77,266.22c-1.58-.05-2,0-2.33,0a2.72,2.72,0,0,1-1.06.12,2.06,2.06,0,0,1-.89-.48c-.73-.55-.67-2.5-.67-2.58,0-.45-.33-1.44-.32-1.81s.09-.45.1-.68a1,1,0,0,0-.5-1c-.94-1-1-3-1.53-3.81s-1.76-4.12-2.13-4.13a24.9,24.9,0,0,0-4.65-.37c-1.28,0-2.17-.37-3.45-.41a4.45,4.45,0,0,0-1.43.11,21.32,21.32,0,0,1-2.34.23,29.43,29.43,0,0,1-3.68-.42c-.6,0-.77.58-1.41,1.76a18.89,18.89,0,0,1-1.46,3.49,28.26,28.26,0,0,0-1.69,3.64,7.25,7.25,0,0,0-.75,2.16c0,.22-.29,2-.38,2.69,0,.38-1.07.57-2.2.54-.38,0-.6-.1-.9-.11l-1.73-.05c-.45,0-.67-.1-.66-.47a2,2,0,0,1,.49-1.34c.1-.75,1.84-3.33,1.93-3.78a24.66,24.66,0,0,0,1.89-2.87,24,24,0,0,0,2.19-5.2,7.77,7.77,0,0,1-.44-2.72c.33-.75.63-1,1.93-1.52,1.36-.26.91-2.76,2.08-4a40.2,40.2,0,0,0,2.36-5.72c.8-1.41,2-3.93,2.65-5.41.57-1.19,1.62-3.71,2.5-5.26,1.18-1.85,1.69-3.64,2.07-3.63.6,0,1,1.24,1.53,3.81s1.8,5.25,2.12,6.84c.48,1.6,1.76,4.12,2,5.56.48,1.44,1.66,4.64,3.28,8.22s2,4.8,2.74,6.41c.54,1.89,1.34,2.75,1.95,4.72a23.81,23.81,0,0,0,2.13,4.36c.42,1,1.52,1.7,1.49,2.9C265.6,266.25,265.22,266.24,264.77,266.22ZM245.33,236c-.26,1.12-1.55,3.79-2.05,5.21a11,11,0,0,0-1.45,3.34,21.61,21.61,0,0,0-1.16,3.35c0,.15.07.15.29.16a16.33,16.33,0,0,1,2,.06c.9,0,1.88-.17,2.64-.15a1.7,1.7,0,0,1,.59.1,4.09,4.09,0,0,0,1.72.35c.38,0,6.32.2,6.32.05a10.54,10.54,0,0,1-.74-2.73c-.48-1.52-1.49-2.91-2-4.2-.32-1.74-1.41-3-1.73-4.8-.46-2-1-2.66-1.3-4-.21-.69-.76-2.28-1-2.29s-.59,1.79-.67,1.93C246.77,233,245.82,234.56,245.33,236Zm27.57,30.28c-1.06,0-2.64.22-3.77.18a1.64,1.64,0,0,1-1.77-1.18c-.7-1.53-1.15-1.62-1.61-3.81-.53-2.43-1.21-2.3-2.12-4.58s-2.41-4.59-2.89-6.19c-.48-1.44-1.07-1.76-1.67-4.26s-1.21-2.15-1.68-4.19-1.33-3-1.95-4.88-1.59-4.64-2.28-6.46a32.64,32.64,0,0,1-1.73-4.95c-.74-2.73-2-3.59-2-5a10.39,10.39,0,0,1,1.39-3.49c.95-1.7,2.15-3.77,2.9-3.75,1.12,0,2.07,1.2,2.48,2.26s3.51,5.83,3.76,7.42a66,66,0,0,0,2.72,6.78c.69,2.13,2.6,6.17,2.91,8.06s2.36,3.91,2.46,5.65c.32,1.74,1.84,3.66,2.58,6.55a9.9,9.9,0,0,0,1.33,3.27c.41,1.37,1.42,2.68,2.05,4.2s1.4,3.21,1.61,3.89c.2.84,1.95,2.47,1.9,4,0,.68-.55.81-1.22.79a6.12,6.12,0,0,1-1.2-.19C274.85,266.31,273.2,266.26,272.9,266.25Z"/><path class="cls-2" d="M287.73,221.86a.39.39,0,0,1,.39.29c0,.07.08.15.08.3a12.19,12.19,0,0,1-.53,3,12.22,12.22,0,0,0-.1,2.18,7.86,7.86,0,0,0,.2,1.88A6,6,0,0,0,289,231.9c1.47,2,2.85,2.95,5.52,4.39a22.27,22.27,0,0,1,4.83,3.87c1.38,1.17,3.06,2.26,3.21,2.4a7.55,7.55,0,0,0,1.93,1.84,10.34,10.34,0,0,1,4,3.81c1.24,1.7,1.33,2.3,1.53,4.48.11,1.28.12,1.88.13,2.4a6.26,6.26,0,0,1-.67,3.18,8.93,8.93,0,0,1-2.39,3.89,14.54,14.54,0,0,1-3.77,2.95,22.12,22.12,0,0,1-3.59.84c-1.5,0-2.93,0-3.46,0a20,20,0,0,1-7.74-3c-1.22-.88-3.9-2.84-3.95-4.65,0-1.2,2.25-3.58,3.38-3.61,1.58,0,1.29.64,1.94,2.51a14.05,14.05,0,0,0,1.8,3c1.55,1.77,3.38,2.93,7.21,2.84a5,5,0,0,0,1.88-.27,6.45,6.45,0,0,0,5.47-3.74,5.22,5.22,0,0,0,.91-3,20.92,20.92,0,0,0,.53-2.94c-.65-2.24-1.34-2.91-2.9-4.9a13.25,13.25,0,0,0-5-4.24,23.56,23.56,0,0,1-4.52-3.58c-1.08-1.18-3.13-2-5.05-3.64-1.68-.94-4-3.22-4.24-4.41a24.8,24.8,0,0,1-1-4.57c0-.22.07-.37.06-.52C285.69,224.46,286.91,221.88,287.73,221.86Zm24.58,33.93-.05-2c-.05-2.18-1.14-3.59-1.79-5.45A8.84,8.84,0,0,0,307,244c-.77-.66-2.15-1.91-3.46-3.08a14.92,14.92,0,0,0-3.46-3.08c-1.45-.86-2.21-1.52-3.74-2.46a8.93,8.93,0,0,1-3.37-2.71c-2.08-2-3.32-3.3-3.38-5.78a10,10,0,0,1,1.43-6.35,10.73,10.73,0,0,1,3.75-3.85,16.23,16.23,0,0,1,8-2.3c1.43,0,7.74-.11,8.74.55s4.17,1.4,4.95,2.81c.7,1,1.23,1.17,1.25,1.78a3.57,3.57,0,0,1-.14.6c-.12,1.13-2.27,2.39-3.17,2.41-1.06,0-1.59-.26-1.68-.94s-2.49-3.48-4.16-4a15.55,15.55,0,0,0-3.33-.75,10.11,10.11,0,0,0-3.13,1.21c-1.18.93-2.75,1.19-2.91,3.83.06,2.85.34,5.1,1.81,6.65a23.49,23.49,0,0,0,5.37,4.31c1.67.71,4.37,3.58,5.66,4.15s2,1.83,3.54,3.15c2.14,1.75,4,4.64,4.08,7.27s-.24,2.57-.19,4.9c0,1.42-2.17,6.52-3.5,7.45-1.63,1.24-1.9,2.38-3.16,3.46a14.39,14.39,0,0,1-5.06,2.3,1.73,1.73,0,0,1-.59.09c-.61,0-1-.2-1-.5s.36-.69,1-1.08c1.56-.86,2.65-2.39,4.1-4.91C312.19,257.38,312.33,256.77,312.31,255.79Z"/><path class="cls-2" d="M328.47,220.57a.38.38,0,0,1,.4.27c0,.08.09.15.1.3a12.67,12.67,0,0,1-.39,3,11.18,11.18,0,0,0,0,2.18,8.24,8.24,0,0,0,.28,1.87,6.28,6.28,0,0,0,1.37,2.31c1.57,1.93,3,2.81,5.72,4.12a21.79,21.79,0,0,1,5,3.64c1.44,1.1,3.17,2.11,3.33,2.25a7.68,7.68,0,0,0,2,1.74,10.28,10.28,0,0,1,4.17,3.62c1.33,1.64,1.44,2.23,1.75,4.4.17,1.27.21,1.87.25,2.39a6.36,6.36,0,0,1-.53,3.21,9,9,0,0,1-2.2,4,14.24,14.24,0,0,1-3.62,3.12,21.61,21.61,0,0,1-3.55,1c-1.5.11-2.93.13-3.46.17a20,20,0,0,1-7.87-2.61c-1.27-.81-4-2.65-4.16-4.45-.09-1.2,2.07-3.69,3.2-3.77,1.57-.11,1.32.59,2,2.42a14.42,14.42,0,0,0,2,2.95c1.63,1.69,3.51,2.76,7.34,2.49a4.8,4.8,0,0,0,1.85-.36,6.47,6.47,0,0,0,5.3-4,5.24,5.24,0,0,0,.76-3,20.8,20.8,0,0,0,.4-3c-.76-2.21-1.49-2.84-3.13-4.76a13.51,13.51,0,0,0-5.19-4,23.55,23.55,0,0,1-4.68-3.36c-1.14-1.12-3.23-1.88-5.22-3.4-1.72-.85-4.14-3-4.45-4.2a25,25,0,0,1-1.22-4.51c0-.23,0-.38,0-.53C326.56,223.27,327.65,220.63,328.47,220.57Zm26.16,32.73-.15-2c-.15-2.18-1.3-3.53-2-5.36a8.9,8.9,0,0,0-3.68-4.11c-.8-.62-2.24-1.8-3.6-2.91a14.91,14.91,0,0,0-3.6-2.91c-1.49-.79-2.29-1.42-3.86-2.28a9,9,0,0,1-3.5-2.54c-2.16-1.89-3.46-3.15-3.64-5.62s-.21-4,1.13-6.42a10.71,10.71,0,0,1,3.56-4,16.27,16.27,0,0,1,7.87-2.67c1.43-.1,7.73-.48,8.75.13s4.24,1.2,5.09,2.58c.74.92,1.28,1.11,1.33,1.71a3.81,3.81,0,0,1-.11.61c-.07,1.14-2.16,2.49-3.06,2.56-1.05.07-1.6-.19-1.72-.86a10,10,0,0,0-4.34-3.84,15.25,15.25,0,0,0-3.36-.59,10,10,0,0,0-3.07,1.35c-1.14,1-2.7,1.32-2.73,4,.2,2.85.58,5.08,2.12,6.55a23,23,0,0,0,5.57,4c1.7.64,4.53,3.37,5.85,3.88,1.16.45,2.09,1.74,3.68,3,2.23,1.65,4.24,4.45,4.43,7.07s-.12,2.58,0,4.9c.11,1.43-1.86,6.62-3.15,7.61-1.56,1.32-1.78,2.47-3,3.61a14.45,14.45,0,0,1-4.95,2.54,1.54,1.54,0,0,1-.59.11c-.6.05-1-.15-1-.45s.32-.7,1-1.13c1.52-.93,2.54-2.51,3.86-5.1C354.59,254.89,354.7,254.28,354.63,253.3Z"/><path class="cls-2" d="M368.61,210.82c1.34-.15,1.83.86,1.95,1.9a1.79,1.79,0,0,1,0,.61,12.49,12.49,0,0,0,.07,2c.22,2,.87,4.44,1,5.93,0,.3,0,.53,0,.76a13.78,13.78,0,0,0,.05,2.49c.11,1.05.31,2.08.42,3.13.19,1.72.16,2.78.4,5,.15,1.34.43,3.13.63,4.92.1.9.2,1.79.22,2.7a15.66,15.66,0,0,0,.05,1.74c.12,1.12.42,1.76.54,2.81s.06,1.88.15,2.71c.13,1.19.32,2.23.52,4,.27,2.39.51,3.2.68,4.69l.12,1.12c.11,2.34.5,3.13-.1,3.87a2.43,2.43,0,0,1-1.64.87c-.6.06-1.3-.16-1.46-1.58a45.19,45.19,0,0,1-.26-5,4.74,4.74,0,0,0,0-1c-.15-1.35-.58-3.12-.74-4.54s0-2.72-.14-4c-.09-.82-.38-1.39-.46-2.07-.14-1.27.3-2.75.17-3.95,0-.15-.11-.29-.13-.44-.08-.75-.17-1.57-.25-2.24a14.54,14.54,0,0,0-.28-1.86c-.29-1.25-.92-4.89-1.17-7.13-.53-4.71-.45-6.69-.66-8.55a11.48,11.48,0,0,0-.25-1.64,26.72,26.72,0,0,1-.53-2.67,13,13,0,0,1,0-2.19C367.52,211.24,367.8,211.06,368.61,210.82Zm20.32,45.85c0-.3-.7-2.19-.8-3.09-.06-1.88-.11-3-.28-4.58-.1-.82-.2-1.8-.41-3-.47-2.83-1.53-6.19-1.88-9.33a16.85,16.85,0,0,1,.2-4.33,5.34,5.34,0,0,0,0-.61c-.18-1.57-1.35-4.61-1.56-6.48-.15-1.35.18-3.88,0-5.6-.09-.74-.3-1.93-.41-3-.2-2.47-.17-4.22-.29-5.26-.17-1.57-.52-2-1.94-1.83-2.54.29-4.17-.06-6.19.16-2.91.33-3.2,1.12-3,2.69.08.67.24,1.48.35,2.38.17,1.57,1.64,7.31,1.89,9.55.2,1.79.35,5.18,1,11,.19,1.64.4,3.51.7,5.59.05.45.05,1.13.13,1.8.14,1.27.38,2.76.52,4l.43,3.88c.11,1,.21,1.87.37,2.61.1,1-.1,2.51-.09,3.26s.09,1.5.15,2.1c.15,1.35.57,2.36,2,2.2,2-.22,3.31-.82,4.81-1a15.64,15.64,0,0,1,2.65,0S389.25,259.58,388.93,256.67Z"/><path class="cls-2" d="M403.06,248.16c-1.41.23-3.83-4.41-4.91-6.83a17.84,17.84,0,0,1-1.2-4.68c-.16-1-.3-1.85-.5-2.59a8.6,8.6,0,0,1-.44-1.83,12.28,12.28,0,0,1,.15-4.29c.46-2.81.33-6.45,1.07-6.57.52-.08.8.26.92,1s.07,1.82.28,3.15c.29,1.78.58,3.11.77,4.3.25,1.55.23,2.4.37,3.29s.38,1.84.59,3.18c.35,2.15.8,2.61,1.16,4.84s.75,2.31,1,3.58l.19,1.18C402.61,246.78,402.94,247.42,403.06,248.16Zm3,.89a18.67,18.67,0,0,0,6.71,4.79,22.21,22.21,0,0,0,6.73.67c2.27-.13,3.32.76,5.48.42,2-.33,4-.5,5.59-.75a6.27,6.27,0,0,0,1.76-.44c1.4-.75,5-2.24,6.57-3.18a34.79,34.79,0,0,0,4.88-4.21,2.33,2.33,0,0,0,.55-2.3c-.12-.74-1.26-3.53-2.22-3.38-.6.1-1.29,1-1.73,1.58a22.09,22.09,0,0,0-2,3.29c-.69,1.4-2,2.44-3.92,3.59a11.23,11.23,0,0,1-5.43,2.25,46.38,46.38,0,0,1-6.91.12c-1.73-.33-4.21-1.08-5.1-2.38-.67-1.34-2.22-2.92-2.9-6.16a51.84,51.84,0,0,0-1.82-7.1,10.67,10.67,0,0,1-.33-1.54c-.32-2-.05-3.65-.25-5.37-.43-2.67-1.34-5-1.6-6.67s.16-3.23-.27-5.9.89-3.95,1.67-5.75c.57-1.69,2.05-1.93,2.91-2.75.89-1.06,2.95-1.54,4.58-1.81.82-.13,1.5-.16,1.72-.2a11.09,11.09,0,0,1,4.11-.05c2.43.45,2.54.2,4.63.86,1.5.37,1.58,1.8,3.17,2.69s1.39,1.53,2.13,1.41,2-2.45,2.32-3.58a.38.38,0,0,0,0-.23c-.17-1-2.51-2.34-4.52-3a18.18,18.18,0,0,0-3.69-1.15,6.32,6.32,0,0,0-2.74,0,12.42,12.42,0,0,1-2.86.23c-1.12.1-2.2,0-3.39.24a37.23,37.23,0,0,0-5.11,1.35c-2.06.94-5.89,2.7-7.75,4.37a55.72,55.72,0,0,0-4.57,5.23,12,12,0,0,0-2.67,5.68,9.9,9.9,0,0,0,.2,2.18c.35,2.15,1.12,4.62,1.48,6.84a57.76,57.76,0,0,1,.47,5.79c.12.75.37,1.31.47,2,.09.52.12,1.2.22,1.8s.25,1.1.44,1.83c.72,2.09,1.12,2.71,1.84,4.81a20.78,20.78,0,0,1,.47,2.43A3.89,3.89,0,0,0,406,249.05Z"/></svg>