<svg id="Layer_1" data-name="Layer 1" xmlns="http://www.w3.org/2000/svg" viewBox="0 0 800 291.21"><defs><style>.cls-1{fill:#9b9b9b;}.cls-2{fill:#4a4a4a;}.cls-3{fill:#fff;}</style></defs><path class="cls-1" d="M478.72,31.19h0c1.18.46,1.94-.32,2.56-.91,3.08-2.93,15-16.89,17.19-20.08,1.1-1.61.73-2.79-.35-3.72-1.43-1.23-3.88-2.41-8-4S483.35.06,481.46,0a2.52,2.52,0,0,0-2.81,2.49c-.6,3.81-1.43,22.09-1.19,26.31C477.51,29.65,477.54,30.73,478.72,31.19Z"/><path class="cls-1" d="M516.92,36.87c-.71-4.3-1.34-6.88-2.25-8.48-.69-1.22-1.78-1.79-3.59-1-3.62,1.51-19.92,10.43-23.46,12.86-.72.49-1.65,1.08-1.45,2.3v0c.2,1.21,1.26,1.44,2.09,1.65,4.11,1,22.31,3.58,26.19,3.71,1.95.07,2.79-.86,3-2.25C517.86,43.83,517.63,41.17,516.92,36.87Z"/><path class="cls-1" d="M311.49,30.29c.61.59,1.38,1.37,2.55.91h0c1.17-.46,1.21-1.54,1.26-2.39.24-4.22-.59-22.5-1.19-26.31C313.84.58,312.76,0,311.33,0c-1.89.06-4.5.85-8.65,2.47s-6.6,2.79-8,4c-1.09.93-1.45,2.11-.36,3.72C296.47,13.4,308.4,27.36,311.49,30.29Z"/><path class="cls-1" d="M306.61,42.55v0c.2-1.22-.72-1.81-1.44-2.3-3.54-2.43-19.84-11.35-23.46-12.86-1.81-.76-2.9-.19-3.59,1-.91,1.6-1.54,4.18-2.25,8.48s-.94,7-.59,8.79c.26,1.39,1.1,2.32,3.05,2.25,3.88-.13,22.08-2.7,26.19-3.71C305.35,44,306.41,43.76,306.61,42.55Z"/><path class="cls-2" d="M493.29,141.18A12,12,0,0,0,485,137a12.12,12.12,0,0,0-8.82,2.85l-.63.54c-2.74-2.63-5.88-5.73-6.59-6.92a37.39,37.39,0,0,1-4.06-10.18c3.82-4.8,6.93-9.17,9.15-12.48,3.79-5.59,4.07-10.45,3.65-13.54A14.87,14.87,0,0,0,471.63,87a14.7,14.7,0,0,0-3.08-1.68,21.37,21.37,0,0,0,2-4.93A15.6,15.6,0,0,0,463,62.81a14.82,14.82,0,0,0-3.81-1.44,16.63,16.63,0,0,0-5.37-18.83,15.22,15.22,0,0,0-10.26-3.19A15.68,15.68,0,0,0,437,28.09c-6.76-5-17.51-5.22-25,4.18-.41.51-.81,1-1.22,1.48l-.32-.21c-5-3.36-8.95-6-13.18-7.92A15.63,15.63,0,0,0,378,30.85l-.2-.24c-9.07-10.82-20.19-10.4-26.68-5.42a15.14,15.14,0,0,0-5.92,14.41A15.92,15.92,0,0,0,332,59.8a15,15,0,0,0-4.93,1.72,15.79,15.79,0,0,0-7.2,18.36A25.1,25.1,0,0,0,322,84.79a14.53,14.53,0,0,0-6.33,4.61c-3.76,4.73-5.51,13,.84,21.87,3.06,4.28,6,8.1,9,11.65.13.15.28.29.42.44a37.18,37.18,0,0,1-4,10.06,53.35,53.35,0,0,1-5.75,6.11,12.09,12.09,0,0,0-16.73,1.65l-13.05,15.33a12.12,12.12,0,0,0,1.37,17.07l59.69,50.81a12,12,0,0,0,7.83,2.88c.33,0,.66,0,1,0a11.94,11.94,0,0,0,8.25-4.22l13.06-15.34a12.09,12.09,0,0,0-.6-16.34,87,87,0,0,1,7.88-7.2,70.7,70.7,0,0,1,10.57-6.74,69.72,69.72,0,0,1,10.57,6.74,94.15,94.15,0,0,1,8.84,8.17,12.13,12.13,0,0,0-2.58,6.56,12,12,0,0,0,2.85,8.81l13,15.34a12,12,0,0,0,8.25,4.22c.34,0,.67,0,1,0a12,12,0,0,0,7.82-2.88h0L505,173.58a12.13,12.13,0,0,0,1.37-17.07Z"/><path class="cls-3" d="M378.5,175.86a100.23,100.23,0,0,0-9.43,8.63l-44.83-38.16c3.67-3.59,5.61-5.71,6.7-7.53a45.31,45.31,0,0,0,4.76-11.26H336a16.5,16.5,0,0,0,10.7-4.16,15.5,15.5,0,0,0,5.41-9.46h0a16,16,0,0,0,10.72-4.44,18.87,18.87,0,0,0,5.84-10.55,15.06,15.06,0,0,0,3,.3,16.74,16.74,0,0,0,11.5-4.7,15.91,15.91,0,0,0,4.73-13.7,17.3,17.3,0,0,0,10.3-5.22,15.9,15.9,0,0,0,3.42-17.23c6.54-6.26,12.73-12.22,18.6-19.62,3.48-4.4,7.79-4.32,10.51-2.29,2.32,1.72,3.75,5.06.81,9.25a84.62,84.62,0,0,1-9.2,10.92c-1.55,1.63-3.3,3.49-5.37,5.77a5.23,5.23,0,0,0,7.76,7c2-2.19,3.7-4,5.21-5.6a95.65,95.65,0,0,0,9.62-11.32,4.93,4.93,0,0,0,.64-.58c2.63-2.86,5.47-2.43,7.25-1.08,2.08,1.59,3.46,5.12.51,9.82a65,65,0,0,1-4.37,6,3.07,3.07,0,0,0-.26.25,5.8,5.8,0,0,0-.65.85c-3.25,3.93-7.11,8.11-10.76,12a5.23,5.23,0,1,0,7.6,7.19c4-4.21,8.24-8.82,11.83-13.22,2.24-2.21,4.56-2.84,6.59-1.73a5.15,5.15,0,0,1,2.48,5.81c-1.16,4.54-7.76,11.37-13.07,16.86-.88.91-1.75,1.8-2.59,2.69a5.23,5.23,0,0,0,7.57,7.22l2.54-2.64c1.38-1.42,2.76-2.86,4.12-4.3a5.08,5.08,0,0,0,.85-.88c.09-.12.18-.22.27-.33l.24-.26a3.74,3.74,0,0,1,5.18-.64c1.94,1.38,3.07,4.67-.12,9.39A183,183,0,0,1,449.73,125c-14.51,16-29.29,28.8-38.56,33.33-3.47,1.7-6.57,3.13-9.57,4.51C392.92,166.83,386.07,170,378.5,175.86Z"/><path class="cls-3" d="M412.46,175.86c-1.81-1.4-3.65-2.69-5.59-3.94,2.69-1.24,5.67-2.62,8.9-4.2,10.42-5.1,25.79-18.2,41.19-35.13A42.79,42.79,0,0,0,460,138.8c1.17,1.95,3.32,4.26,7.56,8.36l-44.86,38.18A105.29,105.29,0,0,0,412.46,175.86Z"/><path class="cls-3" d="M385.94,37.71c.46-.75,3-4.42,7.05-2.56a79,79,0,0,1,10.77,6.48c-2.67,2.75-5.85,6-8.81,8.81a55,55,0,0,1-8-4.86C383.13,42.57,385.64,38.2,385.94,37.71Z"/><path class="cls-3" d="M357.45,33.49c2.75-2.11,7.62-1.73,12.29,3.84,1.43,1.71,3,3.46,4.67,5.35a15.66,15.66,0,0,0,6,11.09,88,88,0,0,0,10.19,6.15c2.25,3.14,2.33,6.13.12,8.4a7.39,7.39,0,0,1-10.43.12c-6.81-6.22-18.25-19.11-23.09-26C354.26,38.21,355.5,35,357.45,33.49Z"/><path class="cls-3" d="M344.14,50.93c1.87-1.33,5.13-1.57,7.87,2a220.37,220.37,0,0,0,21.22,23.24c.45.41,1.84,1.81,2.1,2.1,4.16,4.6,1.47,7.87.55,8.77a5.59,5.59,0,0,1-8.11,0c-8.11-7.76-21.35-22.22-24.31-26.93C340.69,55.67,342,52.46,344.14,50.93Z"/><path class="cls-3" d="M332.19,70.65c2.39-1.35,5.21-1.37,8.49,2.65,3,3.71,12.24,13.75,16,18,3,3.43,4.28,8,1.25,10.31-3.83,2.94-7.67,1.6-10.14-1.4-7.49-7.81-16.58-18.91-17.85-23.28A5.3,5.3,0,0,1,332.19,70.65Z"/><path class="cls-3" d="M325.05,105.19c-2.53-3.54-3-7.07-1.16-9.28,1-1.16,4.16-2.12,5.78-.15,3.4,4.14,7.49,8.78,10.49,11.87,2.86,3.79,1.49,6.31-.24,7.78-1.92,1.63-5,2.33-6.38.72C330.71,112.81,327.93,109.23,325.05,105.19Z"/><path class="cls-1" d="M369.66,200.89,356.6,216.23a1.61,1.61,0,0,1-1.12.57,1.59,1.59,0,0,1-1.19-.38L294.6,165.61a1.63,1.63,0,0,1-.19-2.31l13-15.34a1.65,1.65,0,0,1,1.12-.57h.13a1.66,1.66,0,0,1,1.07.39l59.69,50.81a1.61,1.61,0,0,1,.57,1.11A1.64,1.64,0,0,1,369.66,200.89Z"/><path class="cls-1" d="M498.19,165.61,438.5,216.42h0a1.66,1.66,0,0,1-2.32-.19l-13.05-15.34a1.63,1.63,0,0,1,.19-2.31L483,147.77a1.64,1.64,0,0,1,1.06-.39h.13a1.61,1.61,0,0,1,1.12.57l13.06,15.34A1.63,1.63,0,0,1,498.19,165.61Z"/><path class="cls-3" d="M253,150.22s-63.64-16.06-135,11.87a3.64,3.64,0,0,0-.07,6.74l41.62,17.56a6.53,6.53,0,0,1,2.58,10.05l-30.22,38.27a2.23,2.23,0,0,0,2.66,3.41c56.42-25,117.23,1.07,117.23,1.07"/><path class="cls-2" d="M249.8,243.65A166.53,166.53,0,0,0,213.26,234c-19.6-2.95-48.83-3.87-76.81,8.52A7.07,7.07,0,0,1,128,231.71l30.22-38.28a1.62,1.62,0,0,0,.31-1.45,1.66,1.66,0,0,0-1-1.12L116,173.3a8.5,8.5,0,0,1,.19-15.73c37.62-14.72,73.06-17.23,96.16-16.74,25.09.53,41.16,4.52,41.83,4.69l-2.38,9.41,1.19-4.71-1.18,4.71c-.16,0-15.9-3.93-40-4.41-21.56-.42-54.33,1.87-89.29,15l38.84,16.39a11.36,11.36,0,0,1,4.51,17.52l-24.18,30.63c17-5.92,41.62-10.42,73.31-5.59,22.61,3.45,38,10,38.64,10.25Z"/><path class="cls-3" d="M217.18,166.82,248.89,151A7,7,0,0,1,259,157.24v16.84"/><path class="cls-2" d="M263.89,174.08h-9.71V157.24a2.16,2.16,0,0,0-3.12-1.93l-31.72,15.85L215,162.48l31.71-15.85a11.87,11.87,0,0,1,17.17,10.61Z"/><path class="cls-3" d="M539.83,150.22s63.64-16.06,135,11.87a3.64,3.64,0,0,1,.08,6.74l-41.62,17.56a6.52,6.52,0,0,0-2.58,10.05L661,234.71a2.22,2.22,0,0,1-2.65,3.41c-56.43-25-117.23,1.07-117.23,1.07"/><path class="cls-2" d="M543,243.65l-3.82-8.92c.64-.27,16-6.8,38.63-10.25,18.83-2.87,46.05-4,73.31,5.58l-24.17-30.62a11.36,11.36,0,0,1,4.51-17.52l38.84-16.39c-68-25.57-128.65-10.76-129.27-10.6l-2.37-9.41c.67-.17,16.73-4.16,41.83-4.69,23.1-.48,58.54,2,96.16,16.74a8.5,8.5,0,0,1,.19,15.73l-41.61,17.56a1.66,1.66,0,0,0-.66,2.57l30.21,38.28a7.07,7.07,0,0,1-8.42,10.84c-28-12.39-57.22-11.47-76.81-8.52A167,167,0,0,0,543,243.65Z"/><path class="cls-3" d="M575.61,166.82,543.9,151a7,7,0,0,0-10.15,6.27v16.84"/><path class="cls-2" d="M538.6,174.08h-9.7V157.24a11.87,11.87,0,0,1,17.17-10.61l31.71,15.85-4.34,8.68-31.71-15.85a2.17,2.17,0,0,0-3.13,1.93Z"/><path class="cls-3" d="M582.33,236.68a29.65,29.65,0,0,1-20.43,28.18c-28.92,9.5-87.19,21.5-166.2,21.5-78.81,0-136.35-11.93-164.93-21.42a29.66,29.66,0,0,1-20.31-28.15V177.85a12.4,12.4,0,0,1,16.31-11.77c27.89,9.28,89.56,26.14,169.62,26.14S538.13,175.36,566,166.08a12.4,12.4,0,0,1,16.31,11.77Z"/><path class="cls-2" d="M395.7,291.21c-93.93,0-151.15-16.59-166.46-21.67a34.46,34.46,0,0,1-23.63-32.75V177.85a17.24,17.24,0,0,1,22.69-16.37c29.06,9.67,89.53,25.89,168.09,25.89s139-16.22,168.09-25.89a17.24,17.24,0,0,1,22.7,16.37v58.83a34.44,34.44,0,0,1-23.77,32.79C547.88,274.57,489.87,291.21,395.7,291.21ZM222.83,170.29a7.55,7.55,0,0,0-7.52,7.56v58.94a24.77,24.77,0,0,0,17,23.54c14.95,5,70.93,21.18,163.4,21.18,92.73,0,149.5-16.27,164.69-21.25a24.78,24.78,0,0,0,17.09-23.58V177.85a7.54,7.54,0,0,0-9.93-7.16c-29.61,9.85-91.22,26.38-171.16,26.38s-141.54-16.53-171.15-26.38A7.47,7.47,0,0,0,222.83,170.29Z"/><path class="cls-2" d="M241.33,233.52a18.65,18.65,0,0,1,.31-5.36c.17-1,.32-2,.39-2.9a9.87,9.87,0,0,1,.16-2,14.28,14.28,0,0,1,1.63-4.54c1.43-2.74,2.58-6.67,3.4-6.54.59.09.74.57.62,1.39s-.54,2-.78,3.45c-.3,1.93-.46,3.43-.68,4.77-.27,1.71-.57,2.65-.72,3.61-.18,1.12-.25,2.1-.49,3.58-.37,2.38,0,3-.41,5.49s0,2.66-.26,4.07l-.21,1.34c-.15,1-.06,1.82-.19,2.63C242.54,242.24,241.63,236.46,241.33,233.52Zm49.21-26.71a8.87,8.87,0,0,1,1.72,6.9c-.45,1.9-1.74,4.29-3.91,5a8.7,8.7,0,0,1-3.91.68,5,5,0,0,1-3.8-2.43,4.12,4.12,0,0,1-.55-2.83,3.08,3.08,0,0,1,1.49-2.2,2.92,2.92,0,0,1,1.73-.33,2.2,2.2,0,0,1,1.64,1.17,1.67,1.67,0,0,1,.13,1.08,4.07,4.07,0,0,1-.71,1.64,6.29,6.29,0,0,0,1,.24,2.49,2.49,0,0,0,1.54-.14c.91-.46,1.63-2.63,1.8-3.67.5-3.19-3-5.87-6-7a17.74,17.74,0,0,0-3.89-.92l-1.48-.24c-.23,0-1-.22-1.92-.38-1.79-.28-4.11-.49-5.46.36-1.16.58-2.82.47-4,2-1.4,1.61-3.23,2.62-3.69,5.51s-1.46,4.42-1.76,6.35c-.29,1.78-.13,4.62-.6,7.59-.44,1.83-1.24,3.53-1.59,5.76a14.15,14.15,0,0,0-.2,1.72,62.41,62.41,0,0,1-.52,8.14c-.42,3.59.68,5.82.95,7.46.42,1.67,2.82,3.34,4.5,4.29a46.1,46.1,0,0,0,7.34,2.22,12.12,12.12,0,0,0,6.55-.48c2.44-.53,4.14-1.18,5.33-2.44a28.39,28.39,0,0,1,3.25-2.76,4.29,4.29,0,0,1,2.38-1.07c1,.17,1.28,3.48,1.15,4.3-.2,1.26-.52,1.82-1.34,2.22a34.12,34.12,0,0,1-6.61,2.76c-2.05.44-6.29.84-8,1.17a8,8,0,0,1-2-.17c-1.71-.27-3.91-.77-6.14-1.12-2.38-.37-3.23-1.73-5.65-2.34a25,25,0,0,1-6.9-3.07,22.27,22.27,0,0,1-5.46-7.33,4.8,4.8,0,0,1-.09-1.84,22.42,22.42,0,0,0,.35-2.69c-.06-2.52-.24-3.31-.31-5.75.06-.83.09-1.51.18-2.11s.29-1.32.38-1.92.07-1.43.2-2.25c.23-1.41.92-2.44,1.53-6.3.39-2.45.39-5.35.76-7.72a12,12,0,0,1,.53-2.36,14,14,0,0,1,4.84-5.09,55.74,55.74,0,0,1,6.57-4c2.53-1.12,7.2-1.76,9.76-2a34,34,0,0,1,5.81.31,27.69,27.69,0,0,1,3.65,1,15.9,15.9,0,0,0,3.16.73C286,202.67,289,204.89,290.54,206.81Z"/><path class="cls-2" d="M306.25,213a5.33,5.33,0,0,1-.16,1,12.61,12.61,0,0,0-.32,1.79c-.17,1.94,0,4.37-.15,5.87,0,.3-.12.52-.14.74a14.78,14.78,0,0,0-.45,2.46c-.09,1-.11,2.1-.21,3.15-.15,1.72-.4,2.76-.59,4.93-.12,1.35-.21,3.15-.37,4.95-.08.9-.17,1.79-.32,2.69a15.35,15.35,0,0,0-.31,1.71c-.1,1.12.07,1.81,0,2.86,0,.3-.13.59-.15.89a15.64,15.64,0,0,0-.24,1.79c-.11,1.2-.13,2.26-.29,4.05-.22,2.4-.14,3.24-.28,4.74l-.1,1.12c-.36,2.31-.13,3.16-.87,3.77a2.42,2.42,0,0,1-1.78.52,1.17,1.17,0,0,1-1.19-1.09,51.1,51.1,0,0,1,.82-5.74,4,4,0,0,0,.17-1c.12-1.35.06-3.16.19-4.59s.54-2.67.66-3.94a9,9,0,0,0,0-1.36,2.72,2.72,0,0,1,0-.76c.12-1.27.84-2.64.95-3.84,0-.15,0-.3,0-.45.07-.75.14-1.58.2-2.25a15.41,15.41,0,0,0,.1-1.88c0-1.29.07-5,.27-7.22.42-4.72.9-6.64,1.07-8.51a12.55,12.55,0,0,0,.07-1.66c0-1.28,0-2.11,0-2.71a12.67,12.67,0,0,1,.42-2.16c.39-1.77.7-1.9,1.54-2C306,210.93,306.34,212,306.25,213Zm17.12,50.46a16.77,16.77,0,0,0-3.43-.53c-1.27-.12-2.78-.18-4.27-.31-1.81-.09-2.48-.15-3.23-.22s-.89-.15-2.39-.29c-1.65-.15-2.66.14-4.3,0-1.26-.26-2.07-.56-1.93-2.06.11-1.2.07-1.65.11-2.1.15-.82.43-3.06.69-5.91.14-1.64.18-2.85.36-4.87.22-2.4.84-6,1-8,.16-1.79.08-3.39.24-5.11a60.74,60.74,0,0,1,.78-6.12c.11-1.27.42-2.23.62-4.4l.08-.9c.17-1.87-.16-4.09,0-5.66l.36-4c.13-1.5,1.06-1.72,2-1.63.68.06,1.34.27,1.86.32a24.58,24.58,0,0,0,2.71.09c1.06,0,2.13-.18,3-.11s1.6.67,1.4,2.85c0,.6-.5,2.22-.65,3.86-.28,3.15-1.45,5.16-1.74,8.38s.33,3.95.1,6.5c-.25,2.77-.84,4.3-1.18,8a38.6,38.6,0,0,1-.25,4.51c-.3,3.37-.79,7-1.15,7.75a4.43,4.43,0,0,0-.17,1,14,14,0,0,0,.1,3,3.77,3.77,0,0,0,2.56,2.57,4.46,4.46,0,0,0,1.48.36c1.12.1,2.5-.08,3.62,0,1.58.15,2.94,0,4.22.16s2.35-.17,4.5-1.41a1.15,1.15,0,0,1,.77-.15,1.42,1.42,0,0,1,1.29.79,1.14,1.14,0,0,1,.11.46c-.07.75-1.32,1.24-2.23,2.14-1.09,1.19-1.91,1.94-3.34,1.82A8.37,8.37,0,0,1,323.37,263.46Z"/><path class="cls-2" d="M375.55,266.22c-1.58-.05-2,0-2.34,0a2.67,2.67,0,0,1-1,.12,2,2,0,0,1-.89-.48c-.74-.55-.68-2.5-.67-2.58,0-.45-.33-1.44-.32-1.81s.09-.45.09-.68a1,1,0,0,0-.49-1c-.95-1-1-3-1.54-3.81s-1.75-4.12-2.13-4.13a24.72,24.72,0,0,0-4.65-.37c-1.28,0-2.17-.37-3.45-.41a4.45,4.45,0,0,0-1.43.11,21.32,21.32,0,0,1-2.34.23,29.14,29.14,0,0,1-3.67-.42c-.6,0-.77.58-1.41,1.76a19.6,19.6,0,0,1-1.46,3.49,29.64,29.64,0,0,0-1.7,3.64,6.93,6.93,0,0,0-.74,2.16c0,.22-.29,2-.39,2.69,0,.38-1.07.57-2.2.54-.37,0-.59-.1-.9-.11l-1.72-.05c-.45,0-.68-.1-.67-.47a2,2,0,0,1,.5-1.34c.1-.75,1.83-3.33,1.92-3.78a23.37,23.37,0,0,0,1.9-2.87,24.56,24.56,0,0,0,2.19-5.2,7.33,7.33,0,0,1-.44-2.72c.32-.75.63-1,1.92-1.52,1.37-.26.92-2.76,2.09-4a42.67,42.67,0,0,0,2.36-5.72c.79-1.41,2-3.93,2.65-5.41.56-1.19,1.62-3.71,2.49-5.26,1.19-1.85,1.7-3.64,2.07-3.63.6,0,1,1.24,1.54,3.81s1.79,5.25,2.12,6.84,1.75,4.12,2,5.56c.48,1.44,1.66,4.64,3.28,8.22s1.95,4.8,2.73,6.41c.54,1.89,1.34,2.75,2,4.72a23.28,23.28,0,0,0,2.12,4.36c.42,1,1.53,1.7,1.49,2.9C376.37,266.25,376,266.24,375.55,266.22ZM356.1,236c-.26,1.12-1.55,3.79-2,5.21a10.82,10.82,0,0,0-1.46,3.34,21.61,21.61,0,0,0-1.16,3.35c0,.15.07.15.3.16a16.18,16.18,0,0,1,1.95.06c.9,0,1.89-.17,2.64-.15a1.8,1.8,0,0,1,.6.1,4.09,4.09,0,0,0,1.72.35c.37,0,6.31.2,6.32.05a10.37,10.37,0,0,1-.75-2.73c-.48-1.52-1.49-2.91-2-4.2-.32-1.74-1.41-3-1.73-4.8-.47-2-1-2.66-1.31-4-.2-.69-.75-2.28-1-2.29s-.58,1.79-.66,1.93C357.55,233,356.6,234.56,356.1,236Zm27.57,30.28c-1.05,0-2.64.22-3.77.18a1.65,1.65,0,0,1-1.77-1.18c-.7-1.53-1.15-1.62-1.61-3.81-.52-2.43-1.2-2.3-2.11-4.58s-2.42-4.59-2.89-6.19c-.49-1.44-1.08-1.76-1.68-4.26s-1.21-2.15-1.67-4.19c-.62-1.9-1.34-3-2-4.88s-1.58-4.64-2.28-6.46a31.72,31.72,0,0,1-1.72-4.95c-.75-2.73-2-3.59-2-5a10.86,10.86,0,0,1,1.39-3.49c1-1.7,2.15-3.77,2.9-3.75,1.13,0,2.07,1.2,2.49,2.26s3.5,5.83,3.76,7.42a66,66,0,0,0,2.72,6.78c.68,2.13,2.59,6.17,2.91,8.06s2.36,3.91,2.45,5.65c.33,1.74,1.85,3.66,2.58,6.55a10.39,10.39,0,0,0,1.33,3.27c.41,1.37,1.42,2.68,2.05,4.2s1.41,3.21,1.61,3.89c.2.84,2,2.47,1.91,4,0,.68-.55.81-1.23.79a6.24,6.24,0,0,1-1.2-.19C385.62,266.31,384,266.26,383.67,266.25Z"/><path class="cls-2" d="M398.51,221.86a.38.38,0,0,1,.38.29c0,.07.08.15.08.3a12.19,12.19,0,0,1-.53,3,11.26,11.26,0,0,0-.09,2.18,8.08,8.08,0,0,0,.19,1.88,6.21,6.21,0,0,0,1.26,2.37c1.48,2,2.85,2.95,5.52,4.39a22,22,0,0,1,4.83,3.87c1.38,1.17,3.06,2.26,3.22,2.4a7.41,7.41,0,0,0,1.92,1.84,10.21,10.21,0,0,1,4,3.81c1.24,1.7,1.33,2.3,1.54,4.48.1,1.28.12,1.88.13,2.4a6.28,6.28,0,0,1-.68,3.18,8.93,8.93,0,0,1-2.39,3.89,14.56,14.56,0,0,1-3.76,2.95,22.12,22.12,0,0,1-3.59.84c-1.51,0-2.94,0-3.46,0a20,20,0,0,1-7.74-3c-1.23-.88-3.91-2.84-3.95-4.65,0-1.2,2.25-3.58,3.37-3.61,1.58,0,1.3.64,1.94,2.51a14.47,14.47,0,0,0,1.8,3c1.55,1.77,3.38,2.93,7.22,2.84a5,5,0,0,0,1.87-.27,6.46,6.46,0,0,0,5.48-3.74,5.3,5.3,0,0,0,.91-3,22.51,22.51,0,0,0,.53-2.94c-.66-2.24-1.35-2.91-2.9-4.9a13.25,13.25,0,0,0-5-4.24,23.56,23.56,0,0,1-4.52-3.58c-1.08-1.18-3.14-2-5.05-3.64-1.68-.94-4-3.22-4.25-4.41a24.8,24.8,0,0,1-1-4.57c0-.22.07-.37.07-.52C396.46,224.46,397.68,221.88,398.51,221.86Zm24.57,33.93-.05-2c0-2.18-1.13-3.59-1.78-5.45a8.85,8.85,0,0,0-3.49-4.28c-.76-.66-2.15-1.91-3.45-3.08a15.13,15.13,0,0,0-3.46-3.08c-1.45-.86-2.22-1.52-3.75-2.46a9,9,0,0,1-3.37-2.71c-2.08-2-3.31-3.3-3.37-5.78a9.89,9.89,0,0,1,1.43-6.35,10.71,10.71,0,0,1,3.74-3.85,16.3,16.3,0,0,1,8-2.3c1.43,0,7.75-.11,8.74.55s4.17,1.4,5,2.81c.7,1,1.23,1.17,1.24,1.78a2.61,2.61,0,0,1-.13.6c-.13,1.13-2.28,2.39-3.18,2.41s-1.59-.26-1.68-.94a10,10,0,0,0-4.15-4,15.69,15.69,0,0,0-3.33-.75,10.11,10.11,0,0,0-3.13,1.21c-1.18.93-2.76,1.19-2.92,3.83.07,2.85.35,5.1,1.81,6.65a23.49,23.49,0,0,0,5.37,4.31c1.67.71,4.37,3.58,5.67,4.15,1.14.5,2,1.83,3.53,3.15,2.15,1.75,4,4.64,4.08,7.27s-.24,2.57-.18,4.9c0,1.42-2.18,6.52-3.51,7.45-1.62,1.24-1.9,2.38-3.15,3.46a14.47,14.47,0,0,1-5.06,2.3,1.75,1.75,0,0,1-.6.09c-.6,0-1-.2-1-.5s.36-.69,1-1.08c1.56-.86,2.65-2.39,4.09-4.91C423,257.38,423.1,256.77,423.08,255.79Z"/><path class="cls-2" d="M439.25,220.57a.37.37,0,0,1,.39.27c0,.08.09.15.1.3a12.15,12.15,0,0,1-.39,3,12,12,0,0,0,0,2.18,8.24,8.24,0,0,0,.28,1.87,6.49,6.49,0,0,0,1.37,2.31c1.57,1.93,3,2.81,5.73,4.12a21.71,21.71,0,0,1,5,3.64c1.44,1.1,3.17,2.11,3.33,2.25a8.11,8.11,0,0,0,2,1.74,10.23,10.23,0,0,1,4.18,3.62c1.32,1.64,1.44,2.23,1.74,4.4.17,1.27.21,1.87.25,2.39a6.26,6.26,0,0,1-.53,3.21,8.92,8.92,0,0,1-2.2,4A14.24,14.24,0,0,1,456.9,263a21.61,21.61,0,0,1-3.55,1c-1.5.11-2.93.13-3.45.17A20.08,20.08,0,0,1,442,261.6c-1.26-.81-4-2.65-4.16-4.45-.08-1.2,2.08-3.69,3.2-3.77,1.58-.11,1.32.59,2.06,2.42a14.34,14.34,0,0,0,1.94,2.95c1.63,1.69,3.52,2.76,7.34,2.49a4.85,4.85,0,0,0,1.86-.36,6.45,6.45,0,0,0,5.29-4,5.26,5.26,0,0,0,.77-3,21.11,21.11,0,0,0,.39-3c-.76-2.21-1.48-2.84-3.13-4.76a13.41,13.41,0,0,0-5.18-4,23.65,23.65,0,0,1-4.69-3.36c-1.14-1.12-3.22-1.88-5.22-3.4-1.72-.85-4.13-3-4.44-4.2a25,25,0,0,1-1.23-4.51c0-.23.05-.38,0-.53C437.33,223.27,438.42,220.63,439.25,220.57ZM465.4,253.3l-.14-2c-.16-2.18-1.31-3.53-2-5.36a8.86,8.86,0,0,0-3.69-4.11c-.8-.62-2.24-1.8-3.6-2.91a14.72,14.72,0,0,0-3.6-2.91c-1.49-.79-2.28-1.42-3.85-2.28a9,9,0,0,1-3.5-2.54c-2.17-1.89-3.47-3.15-3.64-5.62a10,10,0,0,1,1.12-6.42,10.89,10.89,0,0,1,3.56-4,16.32,16.32,0,0,1,7.88-2.67c1.42-.1,7.73-.48,8.75.13s4.23,1.2,5.08,2.58c.75.92,1.29,1.11,1.33,1.71a2.92,2.92,0,0,1-.11.61c-.07,1.14-2.16,2.49-3.06,2.56s-1.59-.19-1.71-.86a10,10,0,0,0-4.35-3.84,15.15,15.15,0,0,0-3.36-.59,10,10,0,0,0-3.07,1.35c-1.13,1-2.69,1.32-2.73,4,.2,2.85.59,5.08,2.13,6.55a22.71,22.71,0,0,0,5.56,4c1.7.64,4.54,3.37,5.86,3.88,1.16.45,2.08,1.74,3.68,3,2.22,1.65,4.23,4.45,4.42,7.07s-.12,2.58.05,4.9c.1,1.43-1.87,6.62-3.15,7.61-1.57,1.32-1.79,2.47-3,3.61a14.4,14.4,0,0,1-4.94,2.54,1.56,1.56,0,0,1-.6.11c-.6.05-1-.15-1-.45s.33-.7,1-1.13c1.51-.93,2.53-2.51,3.85-5.1C465.37,254.89,465.47,254.28,465.4,253.3Z"/><path class="cls-2" d="M479.38,210.82c1.35-.15,1.84.86,1.95,1.9a1.57,1.57,0,0,1,0,.61,15.52,15.52,0,0,0,.07,2c.23,2,.88,4.44,1,5.93,0,.3,0,.53,0,.76a13.78,13.78,0,0,0,.05,2.49c.12,1.05.31,2.08.43,3.13.19,1.72.16,2.78.4,5,.15,1.34.42,3.13.62,4.92.1.9.2,1.79.23,2.7a15.87,15.87,0,0,0,0,1.74c.13,1.12.42,1.76.54,2.81s.06,1.88.15,2.71c.14,1.19.33,2.23.53,4,.26,2.39.5,3.2.67,4.69l.13,1.12c.11,2.34.5,3.13-.1,3.87a2.45,2.45,0,0,1-1.64.87c-.6.06-1.31-.16-1.47-1.58a45.19,45.19,0,0,1-.26-5,4.74,4.74,0,0,0,0-1c-.15-1.35-.57-3.12-.73-4.54s0-2.72-.14-4c-.1-.82-.39-1.39-.46-2.07-.14-1.27.3-2.75.16-3.95,0-.15-.11-.29-.12-.44-.09-.75-.18-1.57-.25-2.24a14.5,14.5,0,0,0-.29-1.86c-.29-1.25-.92-4.89-1.17-7.13-.52-4.71-.44-6.69-.65-8.55a13.2,13.2,0,0,0-.26-1.64,23.46,23.46,0,0,1-.52-2.67,12,12,0,0,1,0-2.19C478.29,211.24,478.58,211.06,479.38,210.82Zm20.32,45.85c0-.3-.7-2.19-.8-3.09-.06-1.88-.11-3-.28-4.58-.09-.82-.2-1.8-.41-3-.46-2.83-1.52-6.19-1.87-9.33a16,16,0,0,1,.2-4.33,6,6,0,0,0,0-.61c-.17-1.57-1.34-4.61-1.55-6.48-.15-1.35.17-3.88,0-5.6-.08-.74-.29-1.93-.41-3-.2-2.47-.17-4.22-.28-5.26-.18-1.57-.53-2-1.95-1.83-2.54.29-4.17-.06-6.18.16-2.92.33-3.21,1.12-3,2.69.07.67.24,1.48.34,2.38.17,1.57,1.65,7.31,1.9,9.55.2,1.79.35,5.18,1,11,.18,1.64.39,3.51.7,5.59.05.45.05,1.13.12,1.8.15,1.27.39,2.76.52,4l.43,3.88c.11,1,.21,1.87.37,2.61.11,1-.1,2.51-.09,3.26s.09,1.5.16,2.1c.15,1.35.56,2.36,2,2.2,2-.22,3.32-.82,4.81-1a15.64,15.64,0,0,1,2.65,0S500,259.58,499.7,256.67Z"/><path class="cls-2" d="M513.83,248.16c-1.41.23-3.83-4.41-4.9-6.83a17.87,17.87,0,0,1-1.21-4.68c-.16-1-.3-1.85-.49-2.59a8.1,8.1,0,0,1-.45-1.83,12.52,12.52,0,0,1,.15-4.29c.46-2.81.33-6.45,1.08-6.57.52-.08.8.26.92,1s.06,1.82.28,3.15c.28,1.78.57,3.11.76,4.3.25,1.55.24,2.4.38,3.29s.37,1.84.59,3.18c.34,2.15.8,2.61,1.15,4.84s.76,2.31,1,3.58l.19,1.18C513.38,246.78,513.71,247.42,513.83,248.16Zm3,.89a18.75,18.75,0,0,0,6.71,4.79,22.24,22.24,0,0,0,6.74.67c2.26-.13,3.32.76,5.47.42s4-.5,5.59-.75a6.09,6.09,0,0,0,1.76-.44c1.4-.75,5-2.24,6.57-3.18a34.9,34.9,0,0,0,4.89-4.21,2.33,2.33,0,0,0,.54-2.3c-.12-.74-1.25-3.53-2.22-3.38-.59.1-1.29,1-1.73,1.58a22.09,22.09,0,0,0-2,3.29c-.69,1.4-2,2.44-3.92,3.59a11.2,11.2,0,0,1-5.42,2.25,46.4,46.4,0,0,1-6.91.12c-1.73-.33-4.21-1.08-5.11-2.38-.67-1.34-2.22-2.92-2.89-6.16a50.37,50.37,0,0,0-1.83-7.1,10.7,10.7,0,0,1-.32-1.54c-.32-2-.05-3.65-.25-5.37-.43-2.67-1.35-5-1.61-6.67s.17-3.23-.26-5.9.89-3.95,1.66-5.75c.57-1.69,2.06-1.93,2.91-2.75.9-1.06,3-1.54,4.59-1.81.81-.13,1.49-.16,1.72-.2a11,11,0,0,1,4.1-.05c2.43.45,2.55.2,4.63.86,1.51.37,1.59,1.8,3.18,2.69s1.38,1.53,2.13,1.41,2-2.45,2.32-3.58a.38.38,0,0,0,0-.23c-.17-1-2.51-2.34-4.52-3a18.58,18.58,0,0,0-3.69-1.15,6.36,6.36,0,0,0-2.75,0,12.29,12.29,0,0,1-2.85.23c-1.13.1-2.21,0-3.39.24a37.4,37.4,0,0,0-5.12,1.35c-2.05.94-5.88,2.7-7.75,4.37a55.72,55.72,0,0,0-4.57,5.23,12,12,0,0,0-2.66,5.68,9.27,9.27,0,0,0,.19,2.18c.35,2.15,1.13,4.62,1.48,6.84a55.87,55.87,0,0,1,.48,5.79c.12.75.36,1.31.47,2,.08.52.11,1.2.21,1.8a17.69,17.69,0,0,0,.45,1.83c.71,2.09,1.12,2.71,1.84,4.81a21.42,21.42,0,0,1,.46,2.43A3.89,3.89,0,0,0,516.79,249.05Z"/><path class="cls-2" d="M.72,69.91a17.72,17.72,0,0,1-.5-5.07c0-1,0-1.93-.08-2.79A9.93,9.93,0,0,1,0,60.12a13.39,13.39,0,0,1,.86-4.5C1.79,52.84,2.29,49,3.07,49c.57,0,.79.43.79,1.21s-.22,1.93-.22,3.36c0,1.86.08,3.29.08,4.57,0,1.65-.15,2.58-.15,3.51s.07,2,.07,3.43c0,2.28.43,2.85.43,5.21s.36,2.5.36,3.86v1.28c0,.93.22,1.72.22,2.51C3.15,77.92,1.43,72.63.72,69.91ZM42.94,37.55a8.41,8.41,0,0,1,2.64,6.21c-.14,1.86-1,4.29-2.93,5.29a8.22,8.22,0,0,1-3.57,1.22,4.78,4.78,0,0,1-3.93-1.72A4,4,0,0,1,34.23,46a2.88,2.88,0,0,1,1.07-2.29,2.8,2.8,0,0,1,1.57-.57,2.14,2.14,0,0,1,1.71.86,1.59,1.59,0,0,1,.29,1,3.85,3.85,0,0,1-.43,1.64,6.9,6.9,0,0,0,1,.07,2.35,2.35,0,0,0,1.43-.36c.79-.57,1.14-2.71,1.14-3.71,0-3.07-3.64-5.07-6.64-5.72a17.29,17.29,0,0,0-3.79-.28H30.15c-.21,0-.93-.07-1.85-.07-1.72,0-3.94.14-5.08,1.14-1,.72-2.57.86-3.5,2.5s-2.64,2.93-2.64,5.72-.72,4.36-.72,6.21.57,4.36.57,7.22c-.14,1.78-.64,3.5-.64,5.64a13,13,0,0,0,.07,1.65,60,60,0,0,1,.72,7.71c.14,3.43,1.5,5.36,2,6.86s3.14,2.72,4.86,3.36a44.52,44.52,0,0,0,7.21,1,11.46,11.46,0,0,0,6.08-1.43c2.21-.86,3.71-1.71,4.64-3.07A26.83,26.83,0,0,1,44.51,78c.57-.57,1.43-1.36,2.08-1.36,1,0,1.71,3.07,1.71,3.86,0,1.21-.21,1.78-.93,2.28a32.33,32.33,0,0,1-5.79,3.58c-1.85.71-5.78,1.71-7.35,2.28a7.6,7.6,0,0,1-1.94.15c-1.64,0-3.78-.15-5.93-.15s-3.28-1.14-5.64-1.36a23.77,23.77,0,0,1-6.93-1.85,20.85,20.85,0,0,1-6.21-6.08,4.45,4.45,0,0,1-.36-1.71,20,20,0,0,0-.08-2.57C6.72,72.7,6.43,72,6,69.7c-.07-.79-.14-1.43-.14-2s.07-1.29.07-1.86-.14-1.36-.14-2.14a61,61,0,0,0,.5-6.15c0-2.36-.43-5.07-.43-7.36A11.38,11.38,0,0,1,6,47.91a13.31,13.31,0,0,1,3.79-5.5,54.18,54.18,0,0,1,5.57-4.72c2.22-1.43,6.5-2.72,8.86-3.36a32.29,32.29,0,0,1,5.5-.57,28.16,28.16,0,0,1,3.58.36,15.1,15.1,0,0,0,3.07.21C38.08,34.33,41.23,36,42.94,37.55Z"/><path class="cls-2" d="M58.29,39.91c1.29,0,1.65,1,1.65,2a1.62,1.62,0,0,1-.07.57,11.85,11.85,0,0,0-.15,1.86c0,1.92.36,4.28.36,5.71,0,.29-.07.5-.07.71a13.55,13.55,0,0,0-.22,2.36c0,1,.08,2,.08,3,0,1.65-.15,2.65-.15,4.72,0,1.28.07,3,.07,4.71,0,.86,0,1.72-.07,2.58a15.56,15.56,0,0,0-.14,1.64c0,1.07.21,1.71.21,2.71s-.14,1.79-.14,2.58c0,1.14.07,2.14.07,3.86,0,2.28.15,3.07.15,4.5v1.07c-.15,2.21.14,3-.5,3.64a2.32,2.32,0,0,1-1.65.65c-.57,0-1.21-.29-1.21-1.65a42.59,42.59,0,0,1,.28-4.78,4,4,0,0,0,.08-1c0-1.28-.22-3-.22-4.35s.29-2.58.29-3.79c0-.79-.22-1.36-.22-2,0-1.22.57-2.57.57-3.72,0-.14-.07-.28-.07-.42V64.91a14.55,14.55,0,0,0-.07-1.78c-.14-1.22-.36-4.72-.36-6.86,0-4.5.29-6.36.29-8.15A12.32,12.32,0,0,0,57,46.55,25.21,25.21,0,0,1,56.79,44,12.18,12.18,0,0,1,57,41.91C57.22,40.19,57.51,40.05,58.29,39.91ZM72.66,85.35c0-.29-.43-2.15-.43-3,.14-1.79.21-2.86.21-4.36,0-.79,0-1.72-.07-2.86-.14-2.72-.79-6-.79-9a15.32,15.32,0,0,1,.65-4.08c0-.14.07-.28.07-.57,0-1.5-.79-4.5-.79-6.29,0-1.28.57-3.64.57-5.28,0-.72-.07-1.86-.07-2.86.07-2.36.29-4,.29-5,0-1.5-.29-1.93-1.65-1.93-2.42,0-3.92-.5-5.85-.5-2.79,0-3.15.71-3.15,2.21,0,.65.07,1.43.07,2.29,0,1.5.79,7.07.79,9.22,0,1.71-.21,4.93-.21,10.5,0,1.57,0,3.36.07,5.36,0,.43-.07,1.07-.07,1.71,0,1.22.07,2.65.07,3.79v3.71c0,.93,0,1.79.07,2.51,0,.93-.36,2.35-.43,3.07s-.07,1.43-.07,2c0,1.28.28,2.29,1.64,2.29,1.93,0,3.22-.43,4.65-.43a15.19,15.19,0,0,1,2.5.28S72.66,88.13,72.66,85.35Z"/><path class="cls-2" d="M85.51,46.69c.5,2.22,2.14,3.93,2.43,5.58a29.44,29.44,0,0,0,2,4.85c.71,1.58,1,2.58,1.79,4.43a65.89,65.89,0,0,1,3,6.79c.71,2.5,1.43,2.86,2.07,4.72S97.94,75.7,99,78.2a52,52,0,0,1,2.35,5.07c.65,1.86,2.22,3.79,2.22,4.72,0,.14,0,.21-.07.29-.07.28-.43.42-.86.42a2.58,2.58,0,0,1-2.29-1.21,34.14,34.14,0,0,1-2.43-5.14c-.35-1.15-1.64-3.29-2.35-4.79s-.86-3.36-1.79-4.72-1.36-3.35-2.07-4.71-1.15-2.58-1.79-3.43c-.64-1.07-1.57-4.29-2.43-6.22-2.35-5.36-2.5-6.64-3.78-9.07a35.35,35.35,0,0,1-3.51-7.22,5.15,5.15,0,0,1-.07-1c0-.79.29-1.14,1.29-1.14C82.23,40.05,85,44.48,85.51,46.69ZM98.8,49.84c.86,2,2.07,4.57,2.93,6.93s2.14,3.93,2.86,6c.93,2.14,1.93,2.57,2.71,4.07s2.65,5.07,3.15,5.07.57-3.07,1.85-5.57a22.33,22.33,0,0,0,1.72-6.5c.28-2.57,1-3.64,2.07-6.07s1.22-5.51,1.86-7.08a6.94,6.94,0,0,0,.21-1.57c0-1.57-.71-2.79-.71-3.79,0-.64,0-1.14,1.28-1.14.72,0,1.65.07,2.29.07s1.57.07,2.65.07c.85,0,1.14.36,1.14.79,0,1.21-2.07,3.57-2.64,5-.79,2.07-1.5,4.57-2.15,6.72s-1.93,2.93-2.21,5.14a32.2,32.2,0,0,1-2,7.08c-1.42,3.5-3,7.35-3.78,9.85A66.65,66.65,0,0,0,110,81.85c-.36,2.14-1.79,4-2,5.35a1.6,1.6,0,0,1-1.43,1.15A.73.73,0,0,1,106,88c-.72-1.29-2.5-3.57-2.5-4.43s-.79-2.5-1.65-4.22a33.84,33.84,0,0,1-2.21-5.07c-.15-1.57-2-3.57-2.15-5.29-.57-2-1.85-3.35-2.85-5.57-.79-1.64-3.22-7.29-3.58-9.29-.57-2.28-2.85-5.71-3.36-6.78-.35-.93-.14-2.15-.78-2.65-.21-.28-1.71-2.5-1.71-3.5s1.14-1,2.35-1h1c1.36.07,1.72.07,1.93.07a8.57,8.57,0,0,0,1.86.07c3.22,0,2.64-.21,3.93-.21C98.09,40.12,96.73,45,98.8,49.84Z"/><path class="cls-2" d="M134.09,39.91c1.29,0,1.64,1,1.64,2a1.62,1.62,0,0,1-.07.57,13.35,13.35,0,0,0-.14,1.86c0,1.92.35,4.28.35,5.71,0,.29-.07.5-.07.71a13.53,13.53,0,0,0-.21,2.36c0,1,.07,2,.07,3,0,1.65-.14,2.65-.14,4.72,0,1.28.07,3,.07,4.71,0,.86,0,1.72-.07,2.58a15.56,15.56,0,0,0-.14,1.64c0,1.07.21,1.71.21,2.71s-.14,1.79-.14,2.58c0,1.14.07,2.14.07,3.86,0,2.28.14,3.07.14,4.5v1.07c-.14,2.21.14,3-.5,3.64a2.29,2.29,0,0,1-1.64.65c-.57,0-1.22-.29-1.22-1.65a42.28,42.28,0,0,1,.29-4.78,4.58,4.58,0,0,0,.07-1c0-1.28-.21-3-.21-4.35s.28-2.58.28-3.79c0-.79-.21-1.36-.21-2,0-1.22.57-2.57.57-3.72,0-.14-.07-.28-.07-.42V64.91a14.55,14.55,0,0,0-.07-1.78c-.15-1.22-.36-4.72-.36-6.86,0-4.5.28-6.36.28-8.15a12.32,12.32,0,0,0-.07-1.57,24.47,24.47,0,0,1-.21-2.57,12.07,12.07,0,0,1,.21-2.07C133,40.19,133.3,40.05,134.09,39.91Zm14.36,45.44c0-.29-.43-2.15-.43-3,.14-1.79.21-2.86.21-4.36,0-.79,0-1.72-.07-2.86-.14-2.72-.78-6-.78-9a15.82,15.82,0,0,1,.64-4.08c0-.14.07-.28.07-.57,0-1.5-.78-4.5-.78-6.29,0-1.28.57-3.64.57-5.28,0-.72-.07-1.86-.07-2.86.07-2.36.28-4,.28-5,0-1.5-.28-1.93-1.64-1.93-2.43,0-3.93-.5-5.86-.5-2.78,0-3.14.71-3.14,2.21,0,.65.07,1.43.07,2.29,0,1.5.79,7.07.79,9.22,0,1.71-.22,4.93-.22,10.5,0,1.57,0,3.36.07,5.36,0,.43-.07,1.07-.07,1.71,0,1.22.07,2.65.07,3.79v3.71c0,.93,0,1.79.07,2.51,0,.93-.36,2.35-.42,3.07s-.08,1.43-.08,2c0,1.28.29,2.29,1.64,2.29,1.94,0,3.22-.43,4.65-.43a15.19,15.19,0,0,1,2.5.28S148.45,88.13,148.45,85.35Z"/><path class="cls-2" d="M161.59,78.92c-1.36,0-2.93-4.72-3.57-7.15a17,17,0,0,1-.43-4.57c0-.93,0-1.79-.07-2.5a8.39,8.39,0,0,1-.14-1.79,11.92,11.92,0,0,1,.78-4c.86-2.57,1.29-6,2-6,.5,0,.72.36.72,1.07s-.22,1.72-.22,3c0,1.72.08,3,.08,4.14,0,1.51-.15,2.29-.15,3.15s.07,1.79.07,3.07c0,2.07.36,2.57.36,4.72,0,2,.36,2.28.36,3.5V76.7C161.38,77.56,161.59,78.2,161.59,78.92Zm2.65,1.28a17.74,17.74,0,0,0,5.57,5.5A21.24,21.24,0,0,0,176,87.35c2.14.21,3,1.21,5.07,1.21s3.86.14,5.36.14a6.25,6.25,0,0,0,1.71-.14c1.43-.5,5-1.36,6.64-2A32.4,32.4,0,0,0,200,83.35a2.22,2.22,0,0,0,.86-2.08c0-.71-.64-3.5-1.57-3.5-.57,0-1.36.72-1.86,1.22a21.61,21.61,0,0,0-2.36,2.78,8.7,8.7,0,0,1-4.21,2.79,10.72,10.72,0,0,1-5.43,1.29,44.17,44.17,0,0,1-6.51-.93c-1.57-.57-3.78-1.65-4.43-3-.43-1.36-1.64-3.08-1.78-6.22a48.08,48.08,0,0,0-.65-6.93,10.27,10.27,0,0,1-.07-1.5c0-1.93.51-3.43.57-5.07,0-2.58-.5-4.93-.5-6.5s.65-3,.65-5.58,1.43-3.57,2.43-5.14c.78-1.5,2.21-1.5,3.14-2.15,1-.85,3-1,4.57-1,.79,0,1.43.08,1.65.08a10.62,10.62,0,0,1,3.86.57A25.72,25.72,0,0,1,192.6,44c1.36.57,1.22,1.93,2.57,3s1.07,1.64,1.79,1.64,2.21-2,2.71-3a.32.32,0,0,0,.08-.21c0-1-2-2.58-3.79-3.5a17.46,17.46,0,0,0-3.29-1.65,6.18,6.18,0,0,0-2.57-.43,11.89,11.89,0,0,1-2.72-.21c-1.07-.07-2.07-.29-3.21-.29a34.34,34.34,0,0,0-5,.5c-2.07.57-5.93,1.65-7.93,2.93A54,54,0,0,0,166.16,47a11.32,11.32,0,0,0-3.35,4.93,8.66,8.66,0,0,0-.15,2.07c0,2.07.36,4.5.36,6.65,0,3.35-.43,4.28-.43,5.5,0,.71.15,1.28.15,1.92s-.08,1.15-.08,1.72.08,1.07.15,1.79c.35,2.07.64,2.71,1,4.78a19.4,19.4,0,0,1,.07,2.36A3.6,3.6,0,0,0,164.24,80.2Z"/><path class="cls-2" d="M594.61,36.69a5.15,5.15,0,0,1-.07,1,8.09,8.09,0,0,0-.21,1.93c0,2.07.43,4.64.43,6.22,0,.28-.07.57-.07.78a15.17,15.17,0,0,0-.22,2.64c0,1.08.07,2.22.07,3.29,0,1.86-.21,2.93-.21,5.22,0,1.5.14,3.35.14,5.28a19.57,19.57,0,0,1-.14,2.86c-.07.72-.14,1.29-.14,1.79,0,1.21.21,1.93.21,3.07,0,.29-.07.57-.07.93a19.12,19.12,0,0,0-.07,1.93c0,1.21.07,2.36.07,4.29,0,2.5.21,3.35.21,5v1.14c-.21,2.5.15,3.36-.57,4.07a2.92,2.92,0,0,1-1.86.72,1.2,1.2,0,0,1-1.35-1,53.14,53.14,0,0,1,.35-6.15,4.79,4.79,0,0,0,.08-1.14c0-1.43-.22-3.29-.22-4.79s.28-2.86.28-4.21a8.66,8.66,0,0,0-.14-1.43,3,3,0,0,1-.07-.79c0-1.36.64-2.86.64-4.14,0-.14-.07-.36-.07-.5-.07-.79-.07-1.65-.07-2.36a18.44,18.44,0,0,0-.07-2c-.14-1.36-.36-5.22-.36-7.65,0-5,.29-7,.29-9a15.74,15.74,0,0,0-.07-1.78c-.14-1.36-.22-2.22-.22-2.86a14.74,14.74,0,0,1,.22-2.29c.21-1.93.57-2.07,1.42-2.21A1.9,1.9,0,0,1,594.61,36.69Zm30.44,48.94c-.64.64-1.86,1.93-2.86,1.93s-2.07.57-3.21.57a3.51,3.51,0,0,1-1.57,0,29.89,29.89,0,0,0-3.65-.21c-1.35,0-3,.07-4.57.07-1.86.07-2.64.07-3.43.07-.57,0-.93-.07-2.5-.07-1.79,0-2.79.36-4.5.36-1.36-.15-2.29-.36-2.29-1.93,0-1.29-.07-1.79-.07-2.29.07-.86.14-3.21.21-6.21,0-1.79-.14-3.08-.14-5.22,0-2.5.36-6.29.36-8.43,0-1.93-.29-3.57-.29-5.43,0-1.5.07-4,.29-6.5,0-1.36.21-2.43.21-4.72v-.93c0-2-.57-4.28-.57-5.93V36.55c0-1.65,1-1.93,2-1.93.72,0,1.43.14,2,.14a28,28,0,0,0,2.86-.14c1.15-.07,2.22-.43,3.07-.43,1.07,0,1.79.57,1.79,2.93,0,.57-.36,2.36-.36,4.07,0,3.36-1,5.57-1,9s.71,4.15.71,6.79c0,2.93-.49,4.65-.49,8.5.14,1.29.14,3,.14,4.79a50.35,50.35,0,0,1-.43,8.29,5.11,5.11,0,0,0-.07,1.07,14.64,14.64,0,0,0,.36,3.14,3.91,3.91,0,0,0,2.92,2.5,5.39,5.39,0,0,0,1.58.22c1.21,0,2.64-.29,3.86-.29,1.64,0,2.28-.5,3.64-.5,2.93,0,3.93-1.35,3.93-3.14a2.32,2.32,0,0,1-2.5-2.29,2.91,2.91,0,0,1,2.71-2.71c2.15,0,3.65,2.07,3.65,4.5A6.89,6.89,0,0,1,625.05,85.63Z"/><path class="cls-2" d="M636.47,39.91c1.29,0,1.65,1,1.65,2a1.62,1.62,0,0,1-.07.57,11.85,11.85,0,0,0-.15,1.86c0,1.92.36,4.28.36,5.71,0,.29-.07.5-.07.71a13.55,13.55,0,0,0-.22,2.36c0,1,.08,2,.08,3,0,1.65-.15,2.65-.15,4.72,0,1.28.07,3,.07,4.71,0,.86,0,1.72-.07,2.58a15.56,15.56,0,0,0-.14,1.64c0,1.07.21,1.71.21,2.71s-.14,1.79-.14,2.58c0,1.14.07,2.14.07,3.86,0,2.28.15,3.07.15,4.5v1.07c-.15,2.21.14,3-.5,3.64a2.32,2.32,0,0,1-1.65.65c-.57,0-1.21-.29-1.21-1.65a42.59,42.59,0,0,1,.28-4.78,4,4,0,0,0,.08-1c0-1.28-.22-3-.22-4.35s.29-2.58.29-3.79c0-.79-.22-1.36-.22-2,0-1.22.58-2.57.58-3.72,0-.14-.08-.28-.08-.42V64.91a14.55,14.55,0,0,0-.07-1.78c-.14-1.22-.36-4.72-.36-6.86,0-4.5.29-6.36.29-8.15a12.32,12.32,0,0,0-.07-1.57A25.21,25.21,0,0,1,635,44a12.18,12.18,0,0,1,.22-2.07C635.4,40.19,635.69,40.05,636.47,39.91Zm14.37,45.44c0-.29-.43-2.15-.43-3,.14-1.79.21-2.86.21-4.36,0-.79,0-1.72-.07-2.86-.14-2.72-.79-6-.79-9a15.32,15.32,0,0,1,.65-4.08c0-.14.07-.28.07-.57,0-1.5-.79-4.5-.79-6.29,0-1.28.58-3.64.58-5.28,0-.72-.08-1.86-.08-2.86.08-2.36.29-4,.29-5,0-1.5-.29-1.93-1.64-1.93-2.43,0-3.93-.5-5.86-.5-2.79,0-3.15.71-3.15,2.21,0,.65.08,1.43.08,2.29,0,1.5.78,7.07.78,9.22,0,1.71-.21,4.93-.21,10.5,0,1.57,0,3.36.07,5.36,0,.43-.07,1.07-.07,1.71,0,1.22.07,2.65.07,3.79v3.71c0,.93,0,1.79.07,2.51,0,.93-.36,2.35-.43,3.07s-.07,1.43-.07,2c0,1.28.28,2.29,1.64,2.29,1.93,0,3.22-.43,4.65-.43a15.19,15.19,0,0,1,2.5.28S650.84,88.13,650.84,85.35Z"/><path class="cls-2" d="M663.76,41.55a4.21,4.21,0,0,1-.07.93,8.14,8.14,0,0,0-.14,1.43c0,2.07.5,4.71.5,6.28,0,.29-.07.36-.07.57a12.64,12.64,0,0,0-.22,2.36c0,1,.07,2,.07,3,0,1.65-.14,2.65-.14,4.72,0,1.28.07,3,.07,4.71,0,.86,0,1.72-.07,2.58a15.56,15.56,0,0,0-.14,1.64c0,1.07.21,1.71.21,2.71,0,.29-.07.58-.07.86a15.42,15.42,0,0,0-.07,1.72c0,1.14.07,2.14.07,3.86,0,2.28.14,3.07.14,4.5v1.07c-.14,2.21.15,3-.49,3.64a2.34,2.34,0,0,1-1.65.65,1.11,1.11,0,0,1-1.21-.93v-.72a42.59,42.59,0,0,1,.28-4.78,4.58,4.58,0,0,0,.07-1c0-1.28-.21-3-.21-4.35s.28-2.58.28-3.79a9,9,0,0,0-.14-1.29,2.22,2.22,0,0,1-.07-.71c0-1.22.57-2.57.57-3.72,0-.14-.07-.28-.07-.42V64.91a14.55,14.55,0,0,0-.07-1.78c-.14-1.22-.36-4.72-.36-6.86,0-4.5.29-6.36.29-8.15a12.32,12.32,0,0,0-.07-1.57,22.56,22.56,0,0,1-.22-2.57,11.24,11.24,0,0,1,.22-2.07c.21-1.72.5-1.86,1.5-2C663.12,39.91,663.76,40.33,663.76,41.55Zm32.58,3.64a3.71,3.71,0,0,0-1.92,2.36c-.79,1.86-4.79,6.36-5.72,7.43a25,25,0,0,0-3.64,4.36c0,.07-.08.14-.08.21,0,.86,1.51,1.5,2.43,2.86a20.61,20.61,0,0,0,3.72,4.22,19.16,19.16,0,0,1,3.43,5.78c.71,1.43,2,2.58,3.5,4.86a21.19,21.19,0,0,0,4.72,4.79c1.14,1.14,1.07,1.71,2.14,2.29.21.14,2.5,1.14,2.5,2.5a1.39,1.39,0,0,1-.5,1,2.69,2.69,0,0,1-2,.57c-1.65,0-3.64-.43-4.5-.43a24.24,24.24,0,0,0-4.72.43c-.14,0-.28.07-.43.07-1.07,0-1.64-1.14-2.5-3.29-.21-.64-.57-.85-1.78-2-.58-.71-.58-.93-.58-1.21a3.33,3.33,0,0,0-.28-1.07c-.64-1.43-2.08-2.15-2.93-3.36s-.86-2.79-2.86-3.93-3.36-4.36-4.29-5.79c-.71-1.21-1.28-1.93-1.85-1.93-.15,0-.22.07-.36.22A35.65,35.65,0,0,0,674.62,70c-.64,1-.85,1.15-.85,1.86,0,.5.14.86.14,1.57.07.86.07,1.72.07,2.58v3.5c0,3.78.64,4.36.72,6.07v.29c0,.85-.15,2.28-1.5,2.28a3.91,3.91,0,0,0-.86-.07c-.5,0-.93.07-1.79.07-.36,0-.79-.07-1.36-.07-1,0-1.92.29-2.57.29s-1.07-.36-1.07-1.65a5.58,5.58,0,0,1,.07-1c.07-.43.07-4.21.29-6.21s0-4.79.14-7.65c.07-.71.07-1.57.07-2.43,0-1.64-.07-3.35-.07-6,0-1.64.07-2.78.07-3.93,0-.78,0-1.64-.07-2.5-.07-2-.07-8.64-.36-9.93a28,28,0,0,1-.5-5.43c0-1.14.65-1.29,1.72-1.29.85,0,.43-.14,2.78-.14,1.22,0,2-.21,3.51-.21.78.07.85.78.85,1.57,0,.57-.07,1.07-.07,1.43a15.6,15.6,0,0,0-.5,3.07,9.89,9.89,0,0,0,.22,2.57v9c0,1.65-.22,3.08-.29,4.36,0,.22-.07.5-.07.79,0,1.07.14,2.29.71,2.71,0,.07.14.15.43.15a2.53,2.53,0,0,0,1.5-.86c.93-1.07,1.79-1.86,3.22-3.36a31.45,31.45,0,0,0,4.07-4.86,37.41,37.41,0,0,1,4.64-5.43c2-2.07,2.93-4.64,3.65-5.78,2.5-3.93,3.86-5.22,5.35-5.22.36,0,.65.14,1,.14,1.28,0,1.85.29,1.85.79C699.77,41.83,697.13,44.69,696.34,45.19Z"/><path class="cls-2" d="M716.7,39.91a1.45,1.45,0,0,1,1.5,1.64,2.43,2.43,0,0,1-.07.78,17,17,0,0,0-.14,2c0,1.78.21,3.92.21,5.42a4.14,4.14,0,0,1-.07,1,16.24,16.24,0,0,0-.22,2.65c0,1,.08,1.78.08,2.71,0,1.65-.15,2.65-.15,4.72,0,1.28.15,3.07.15,4.71,0,.86-.08,1.72-.15,2.58a8.3,8.3,0,0,0-.14,1.71c0,1.14.14,1.86.14,2.72A21,21,0,0,0,717.7,75c0,1.21.14,2.21.14,3.93,0,2.14.22,3,.22,4.43,0,.28-.07.64-.07,1.14a16.22,16.22,0,0,0-.08,1.78c0,.93,0,1.58-.42,1.86a2.73,2.73,0,0,1-1.72.65,1,1,0,0,1-1.14-.93c0-.29-.07-.58-.07-1a37.69,37.69,0,0,1,.35-4.5c0-.29.07-.58.07-.93,0-1.22-.21-3-.21-4.43s.21-2.58.21-3.79c0-.93-.14-1.43-.14-2,0-1.22.5-2.64.5-3.79v-2.5a14.55,14.55,0,0,0-.07-1.78c-.14-1.22-.36-4.72-.36-6.86,0-4.43.29-6.29.29-7.93a15.82,15.82,0,0,0-.07-1.79,12.82,12.82,0,0,1-.29-2.43,6.94,6.94,0,0,1,.29-2c.21-1.93.5-2.07,1.28-2.21Zm14.43,23.5c-.35,0-.71,0-.86.22a1.41,1.41,0,0,0-.21,1c0,.71.29,1.78.29,2.64a29.87,29.87,0,0,1,.14,3.64c-.07,1-.29,2.22-.29,3.43v4.58c0,1-.14,1.85-.14,2.5.07,3.21.43,3.43.93,3.64a5.18,5.18,0,0,0,1.14.07h3.43c.72,0,1.79-.07,2.36-.07a38.81,38.81,0,0,1,5.93-.71c1.29,0,2.79-.79,3.86-1.08.43-.07.79-.28,1-.28.43,0,.57.21.57,1.36,0,.71-1.43,3.78-2.57,4a6.29,6.29,0,0,1-1.14.07,9,9,0,0,1-2.15-.22,20,20,0,0,0-3.07-.28h-3.64a17.24,17.24,0,0,0-2.22-.29c-2.21,0-5.36.29-7,.36s-3,.57-4.58.57c-1.78,0-3.07-.36-3.07-2s.15-2.71.15-4.07c0-.5.35-1.07.35-1.57V78.41a32.08,32.08,0,0,1,.29-3.92,12,12,0,0,0,.14-1.58,2.31,2.31,0,0,0-.28-1.14,5.18,5.18,0,0,1-.07-1.28c0-1.08.07-2.72.07-4a17.54,17.54,0,0,1-.43-3.21,17.69,17.69,0,0,1,.43-3.22V56.77a6.74,6.74,0,0,0,.07-1.22c0-1.86-.22-4.71-.22-6.5,0-1.57-.35-4.86-.35-6.86,0-.78,0-1.36.14-1.43a3.37,3.37,0,0,1,1.64-.43,20.71,20.71,0,0,0,2.36-.07c1.64-.07,1.36-.21,2.29-.21.5,0,1.14.07,2.21.14s2.65.07,7.29.07c1.86,0,3.36.22,4.79.22,1.64,0,4.86-.36,5.64-.36,1,0,2.5,0,2.79,1.07,0,1.14-1.29,2.64-1.65,3s-.14.57-.85.57c-.15,0-.43-.07-.65-.07-1.43-.21-2.28-.71-3.07-.71-1.14,0-1.71-.5-2.57-.5-4.29,0-7.15-.15-9.29-.36-.93,0-.93.36-.93.93,0,1-.28,1.71-.28,2.36,0,1.21.14,2.78.28,4.28.07,1.15.14,1.93.14,2.65l-.21,2.57a4.42,4.42,0,0,0-.21,1.71,16.84,16.84,0,0,0,.28,3c.07.42.43.49,1,.49A14.4,14.4,0,0,0,732.7,61c1.22-.21,2.43-.21,3.22-.35a3.42,3.42,0,0,1,1.29-.15,4,4,0,0,1,1.35.15c.93,0,1.57-.36,2.15-.36a.75.75,0,0,1,.78.85,3.14,3.14,0,0,1-.43,1.43,2.5,2.5,0,0,1-2.21,1.58,1.58,1.58,0,0,1-.57-.08c-1.07-.14-2.22-.35-2.86-.35s-1.36-.22-1.93-.22C732.63,63.48,731.85,63.41,731.13,63.41Z"/><path class="cls-2" d="M758.56,39.91c.78,0,1.86,1.78,1.86,3.71a4.84,4.84,0,0,1-.15,1.07,7.23,7.23,0,0,0-.21,1.72c0,1.28.29,2.57.29,3.57a2.34,2.34,0,0,1-.08.78,13.53,13.53,0,0,0-.21,2.36c0,1,.07,2,.07,3,0,1.65-.14,2.65-.14,4.72,0,1.28.07,3,.07,4.71,0,.86,0,1.72-.07,2.58a15.81,15.81,0,0,0-.15,1.64c0,1.07.22,1.71.22,2.71,0,.29-.07.58-.07.86a15.42,15.42,0,0,0-.07,1.72c0,1.14.07,2.14.07,3.86,0,2.28.14,3.07.14,4.5v1.07c-.14,2.21.14,3-.5,3.64a2.31,2.31,0,0,1-1.64.65,1.12,1.12,0,0,1-1.22-.93,44,44,0,0,1,.29-5.5,4.58,4.58,0,0,0,.07-1c0-1.28-.22-3-.22-4.35s.29-2.58.29-3.79a9,9,0,0,0-.14-1.29,2.22,2.22,0,0,1-.07-.71c0-1.22.57-2.57.57-3.72,0-.14-.07-.28-.07-.42V64.91a14.55,14.55,0,0,0-.07-1.78c-.15-1.22-.36-4.72-.36-6.86,0-4.5.29-6.36.29-8.15a10.79,10.79,0,0,0-.08-1.57,24.47,24.47,0,0,1-.21-2.57,12.07,12.07,0,0,1,.21-2.07C757.49,40.19,757.77,40.05,758.56,39.91ZM800,87.13c0-1.28-1.14-1.57-2-2.57-1.15-1.29-2.29-1.86-2.57-3.43a48,48,0,0,0-1.79-6.93c-.57-1.64-.64-2.57-1.29-3.36s-2.07-2.36-2.78-3.28c-2.29-2.5-2.43-2.58-3.15-2.86,0,.07,2-1.29,3.15-1.93a13.81,13.81,0,0,0,3.86-4.15c.71-1.64,2-4.35,2-6s-.15-5.5-.93-6.71-2.08-3.72-3.93-4.43a22.41,22.41,0,0,0-7.79-1.65h-6.65a13,13,0,0,0-1.64.08c-2.36.21-4.79.28-6.78.28a17.06,17.06,0,0,1-1.86-.07c-.79-.07-1.29-.21-1.86-.21a3,3,0,0,0-1.57.57c-.43.35-.65,1.64-.65,3.14,0,2.71.43,6.29.43,7.57a2.65,2.65,0,0,1-.21,1.29c-.07,1.29-.14,2.57-.14,4.07,0,1,.07,1.86.07,2.86.07,2,.07,2.79.07,4.22,0,2,.21,4.14.21,6.86-.07,1.21-.07,2.71-.07,4.35,0,3.22.07,6.65.07,7.65,0,.78.07.93.07,1.21,0,.79-.28,1.79-.28,3.93,0,.72,1.93,1.15,3.86,1.15.57,0,1-.08,1.28-.08,1.36-.14,3.15-.14,3.93-.35a1.88,1.88,0,0,0,1.5-1.86,10.81,10.81,0,0,0-.64-2.29A6.22,6.22,0,0,1,771.7,82V79.13c0-2.22-.07-2.93-.14-5.5-.14-1.72-.5-2.72-.5-3.72a1.9,1.9,0,0,1,.22-1.07,2.9,2.9,0,0,1,2.5-1.71c1.5,0,1.36-.15,2.07-.15a7,7,0,0,1,2.79.58c2,1,2.28,1.42,3.28,3.5.79,1.64,2.15,2.86,2.93,6.57.22.93,1.15,5.29,1.57,6.43.07,1.14,1.29,3.79,2.43,4.14a3.26,3.26,0,0,0,1.36.22c1.29,0,3-.29,4.22-.29,1.43,0,1.93.22,3.21.22.5,0,1,.07,1.36.07C799.64,88.42,800,88.2,800,87.13ZM771.7,43.26c.15-.78,2.72-.57,4.79-.78,2.57,0,8.93,0,10.65,1s2.79,1.71,3.36,4a18,18,0,0,1,.5,3.71,17.72,17.72,0,0,1-.15,1.93,16.55,16.55,0,0,1-2.07,5.79c-1.21,1.93-4.29,2.57-6.21,4-1.5,1.07-4.36.93-5.79,1.14a8.48,8.48,0,0,1-1.64.15c-.93,0-1.79-.07-2.43-.07-.43,0-.79-.08-.79-.22V62.7c0-1.5.07-4,.21-5.36,0-.22.08-.5.08-1,0-2.15-.51-6-.58-8.36a18.59,18.59,0,0,1-.07-1.86A21.47,21.47,0,0,1,771.7,43.26Z"/></svg>