<svg id="logo" xmlns="http://www.w3.org/2000/svg" viewBox="0 0 1080 1080"><defs><style>.cls-1{fill:#fff;}.cls-2{fill:#50e3c2;}</style></defs><path class="cls-1" d="M139.67,423.69H190V660.23H139.67Z"/><path class="cls-1" d="M461.4,542.14c0-72.7,55-122.35,124.12-122.35,53.91,0,84.05,28.37,100.72,57.81L643,498.88a64.79,64.79,0,0,0-57.46-34.4c-41.13,0-72.34,33-72.34,77.66s31.21,77.67,72.34,77.67c26.25,0,47.53-14.9,57.46-34.4l43.26,20.92c-17,29.43-46.81,58.16-100.72,58.16C516.37,664.49,461.4,614.84,461.4,542.14Z"/><path class="cls-1" d="M259.75,588.6a103.74,103.74,0,0,0,75.18,31.91c27.67,0,41.14-13.12,41.14-26.59,0-17.73-20.57-23.76-47.87-30.15-38.66-8.86-88.31-19.5-88.31-72.34,0-39.37,34.05-71.28,89.73-71.28,37.59,0,68.79,11.35,92.2,33L393.8,490c-19.15-17.73-44.68-25.89-67.73-25.89-22.7,0-34.75,9.93-34.75,24.12,0,16,19.85,20.92,47.16,27.3,39,8.87,88.66,20.57,88.66,73.06,0,43.26-30.85,75.89-94.69,75.89-45.39,0-78-15.25-100.36-37.59Z"/><path class="cls-2" d="M851.59,427.75c-.48-25.61-14.74-50.48-37.2-64.92-60.62-38.95-152-89.84-195.32-112.77a75.76,75.76,0,0,0-74.71,0C501,273,409.68,323.87,349,362.83c-9.52,6.12-24.62,16.87-34,27.26a2.71,2.71,0,0,0,2.2,4.52q6.06-.47,12.36-.46c1.4,0,2.79,0,4.18,0l1,0,3.21.1.92,0q1.65.08,3.27.18l.74,0c1.15.07,2.3.16,3.44.25l.52.05c1.22.1,2.44.22,3.65.35l.3,0c1.28.14,2.56.29,3.82.45l.14,0c1.33.17,2.64.35,3.95.55h0l1.29.2a6.08,6.08,0,0,0,4.72-1.25c1.12-.89,2.28-1.73,3.49-2.51C428,354.38,518.16,304.14,561,281.49a40.44,40.44,0,0,1,41.47,0c42.83,22.65,133,72.89,192.71,111.25,12.43,8,20.62,22,20.88,35.68.71,37.23,1.09,74.77,1.13,111.58s-.42,74.35-1.13,111.59c-.26,13.68-8.45,27.69-20.87,35.67-59.73,38.38-149.91,88.61-192.72,111.26a40.44,40.44,0,0,1-41.47,0C518.47,776,429.15,726.45,369.49,688.05a4.61,4.61,0,0,0-3.32-.61c-3.33.62-6.74,1.17-10.22,1.61l-1.48.18c-1.13.13-2.27.26-3.42.37-1.56.15-3.13.29-4.71.4l-2.1.13c-1.32.08-2.64.14-4,.2l-1.91.06c-2,.06-3.91.1-5.9.1q-5.1,0-10.1-.23a2.06,2.06,0,0,0-1.75,3.28C328,703.26,341,712,349,717.18c60.67,39,152,89.85,195.32,112.76a75.76,75.76,0,0,0,74.71,0C662.4,807,753.74,756.14,814.39,717.17c22.46-14.44,36.72-39.32,37.2-64.91.71-37.44,1.09-75.2,1.14-112.24v0C852.68,503,852.3,465.19,851.59,427.75Z"/><path class="cls-1" d="M779.73,423.69H728V660.23h50.36V501.36l24.85,35c0-26.82-.27-53.9-.67-80.84Z"/><path class="cls-1" d="M889.31,423.69v153.2l-22.59-31.58c-.06,26.37-.28,53-.67,79.65l25,35.27h48.59V423.69Z"/></svg>