<?xml version="1.0" encoding="utf-8"?>
<!-- Generator: Adobe Illustrator 24.2.3, SVG Export Plug-In . SVG Version: 6.00 Build 0)  -->
<svg version="1.1" id="Layer_2_1_" xmlns="http://www.w3.org/2000/svg" xmlns:xlink="http://www.w3.org/1999/xlink" x="0px" y="0px"
	 viewBox="0 0 1080 1080" style="enable-background:new 0 0 1080 1080;" xml:space="preserve">
<style type="text/css">
	.st0{fill:#28646E;}
	.st1{fill-rule:evenodd;clip-rule:evenodd;fill:#FFFFFF;}
</style>
<g>
	<path class="st0" d="M149,0h782c82.3,0,149,66.7,149,149v782c0,82.3-66.7,149-149,149H149c-82.3,0-149-66.7-149-149V149
		C0,66.7,66.7,0,149,0z"/>
	<path class="st1" d="M505.9,421.2c-9,0-16.2-7.3-16.3-16.2c0-4.7,2-9.1,5.5-12.2c45.9-40.5,66.2-74,69.8-80.1
		c13.5-23.4,35-35.7,58-32.6c8.9,1.5,14.9,9.8,13.4,18.7c-1.4,8.5-9.2,14.5-17.8,13.5c-13.3-1.8-22.2,11-25.4,16.5
		c-3.9,7-26.8,44.5-76.5,88.3C513.6,419.8,509.8,421.2,505.9,421.2"/>
	<path class="st1" d="M232.3,696.6c-9,0-16.3-7.2-16.3-16.2c0-4.8,2.1-9.4,5.9-12.5c18.9-14.9,38.9-28.2,59.8-40
		c8-4,17.8-0.8,21.8,7.3c4,8,0.8,17.8-7.3,21.8l0,0c-18.7,10.6-36.6,22.6-53.5,35.9c-2.9,2.5-6.6,3.9-10.4,3.9"/>
	<path class="st1" d="M640.9,542.5c6.5,6,13.9,3.5,20.8-3.1c47.1-45,97-115.3,113.5-151.9c3.5-7.8,10.7-12.1,18.5-9.1
		c9.1,3.7,8.9,19.2,0.7,36.2c-21.7,44.8-51.9,94.1-111.6,155.8c-5,4.7-5.3,12.5-0.6,17.5c0.3,0.3,0.6,0.6,0.9,0.9
		c5.3,4.8,13.8,4.4,21.8-3.7c25.4-25.2,48.7-52.4,69.7-81.3c4.6-6.7,10.1-9.2,15.6-8.1c7.8,1.6,9.1,9.1,6.7,18.1
		c-3.9,14.6-45,68.6-61.3,86.7c-44.1,49.3-88.3,76.2-173.3,120.4c-29.7,15.4-51.9,30.2-65.3,52.9c-12.3,20.6-15.9,27.3-17.1,30
		c-5,10.1-1,22.3,9,27.5c2.7,1.3,5.7,2,8.6,1.9c8.1,0,15.4-4.9,18.5-12.3c0-0.3-0.6,0.3,15.6-26.7c12-19.3,29.4-34.7,50-44.1
		c85-38.9,119.8-69.4,169.2-118.8c22.5-22.5,53.6-70.8,62.1-85c23.8-40,11.3-74.3-10.2-80.1c-1.5-0.4-2.3-1.9-1.9-3.3
		c0.1-0.2,0.1-0.4,0.2-0.6c16.6-28.5,24.1-48.1,27.3-63.4c4.2-20.7-1.6-45.9-30.1-51.9c-1.5-0.4-2.4-1.8-2-3.3c0,0,0-0.1,0-0.1
		c1.8-6.5,3.5-14.8,4.8-20.2c6-26.9-11.1-51.3-31.5-55.6c-13.3-3-27.3-0.1-38.3,8c-1.6,1-3.7,0.8-4.9-0.6
		c-5.4-6.1-13.1-9.6-21.2-9.9c-17.8-0.4-35.3,5.1-48.1,32.5c-9.2,19.5-22.8,45.9-62.8,90.2C557,428.9,505.3,469.1,473.4,490
		c-5.6,3.7-13.4,2.8-12.5-4.7c1.5-11.7,14.3-92,16.5-115.6c3.5-38.4-17.1-55.8-40.2-59c-19-2.6-47.9,2.9-63.8,46.3
		c-9.3,25.4-28.6,67.1-45,134.4c-11.5,47.3-13.4,102.4-2.9,165.8c0.7,3.8-0.1,7.7-2.1,11c-12.6,20.8-31.2,48.1-41.4,72
		c-4.3,9.6-0.6,20.9,8.5,26.1c9.6,5.3,21.7,1.8,27-7.8c0.2-0.4,0.4-0.8,0.6-1.3c6.1-12.9,18.7-37.2,23.7-47.3
		c6.2-11.8,11.8-24,16.6-36.5c2.1-6.7,3.3-14.4-0.5-31.9c-6.5-29.6-8.7-85,3.3-133.9c13.1-50.6,29.1-100.5,47.9-149.3
		c4.8-12,11.7-15.6,18.6-15.1c6.9,0.5,20,3.9,16.2,28.3c-6.7,43.8-16.2,99.4-19.5,118.1c-1.6,9.2-3.3,30.6,13.6,40.5
		c13.2,7.8,27.8,3.4,43.8-7.3c36.2-24.1,98.6-73.3,137.7-117.3c41.2-46.2,54.2-73.7,64.8-98.6c4.8-11.3,17.2-11.3,21.5-10
		c4.4,1.2,9.7,7.2,6,19.7c-9.1,30.3-46.7,99.9-119,165.1c-8.2,7.4-7,16.1-2.9,20.7c4.2,4.6,11.7,7.3,19.9,0
		c50.1-43.6,90.6-97.1,118.8-157.2c5.6-11.8,10.4-23.9,14.3-36.4c3.5-10.3,11.5-14,17-12.8c7.8,1.7,13.1,9.8,10.6,23.1
		c-4,17.1-9.9,33.7-17.7,49.4c-20.8,44.2-64.8,103.4-112.3,154.2c-5.4,5-5.7,13.4-0.6,18.8C640.5,542,640.7,542.2,640.9,542.5"/>
	<path class="st1" d="M347,322.2c2.5-2.2,1.5-5.1,0.8-7.3c-3.5-11.2-23.4-57.9-28.7-67.3c-1.4-3.6-5.4-5.5-9-4.1
		c-0.2,0.1-0.3,0.1-0.5,0.2c-4.7,1.8-10.5,6.1-19.5,13.9c-9,7.8-13.9,13-16.4,17.4c-2,3.3-1,7.7,2.3,9.7c0.1,0.1,0.3,0.2,0.4,0.2
		c8.6,6.4,52.3,32.3,63,37.2c2.1,1,4.9,2.3,7.4,0L347,322.2z"/>
	<path class="st1" d="M330,352.8c-0.6-3.3-3.5-3.9-5.8-4.5c-11.4-2.8-61.7-10.1-72.4-10.5c-5.4-0.2-7.8,2.3-8.4,6
		c-0.9,5-0.3,12.2,1.8,23.9c0.9,8,3,15.7,6.4,23c1.8,3.5,6,4.9,9.5,3.1c0.2-0.1,0.3-0.2,0.5-0.3c10-3.9,54.8-28,64.5-34.5
		C328,357.8,330.5,356.2,330,352.8L330,352.8z"/>
	<path class="st1" d="M707.4,735.7c-3.3,0.2-4.3,3.1-5.1,5.3c-3.9,11-16.5,60.2-18.1,70.9c-1.2,3.7,0.9,7.7,4.7,8.9
		c0.2,0,0.3,0.1,0.5,0.1c7.9,1.5,15.9,1.7,23.9,0.7c11.7-0.8,19-1.8,23.6-3.9c3.6-1.4,5.5-5.4,4.1-9.1c-0.1-0.2-0.1-0.3-0.2-0.5
		c-3-10.3-22-57.4-27.5-67.8c-1.1-2.1-2.4-4.8-5.7-4.6L707.4,735.7z"/>
	<path class="st1" d="M735.9,712.9c-1.6,3,0.4,5.3,1.9,7.1c7.3,9.2,42.8,45.4,51.1,52.3c2.6,2.9,7.1,3.2,10,0.6
		c0.1-0.1,0.2-0.2,0.4-0.3c5.4-5.9,9.8-12.7,13-20c5.5-10.5,8.3-17.2,8.9-22.2c0.5-3.9-0.9-6.9-6.2-8.3c-10.3-2.8-60.5-11-72.2-11.7
		C740.5,710.4,737.4,709.9,735.9,712.9L735.9,712.9z"/>
</g>
</svg>
