<?xml version="1.0" encoding="utf-8"?>
<!-- Generator: Adobe Illustrator 24.2.3, SVG Export Plug-In . SVG Version: 6.00 Build 0)  -->
<svg version="1.1" id="Layer_1" xmlns="http://www.w3.org/2000/svg" xmlns:xlink="http://www.w3.org/1999/xlink" x="0px" y="0px"
	 viewBox="0 0 1024 1024" style="enable-background:new 0 0 1024 1024;" xml:space="preserve">
<style type="text/css">
	.st0{fill:#28646E;}
</style>
<g>
	<path class="st0" d="M512,992C247.3,992,32,776.7,32,512S247.3,32,512,32s480,215.3,480,480S776.7,992,512,992z M512,72.7
		C269.7,72.7,72.7,269.7,72.7,512S269.7,951.3,512,951.3S951.4,754.3,951.4,512S754.3,72.7,512,72.7z"/>
	<path class="st0" d="M480.3,424.3c-7.5,0-13.6-6.1-13.7-13.6c0-3.9,1.7-7.7,4.6-10.3c38.6-34,55.6-62,58.6-67.3
		c11.3-19.8,29.5-30,48.7-27.4c7.5,1,12.7,7.9,11.7,15.4s-7.9,12.7-15.4,11.7l0,0c-11.2-1.5-18.6,9.2-21.3,13.9
		c-3.4,5.9-22.5,37.3-64.2,74.2C486.8,423.1,483.6,424.3,480.3,424.3z"/>
	<path class="st0" d="M250.5,655.7c-7.6,0-13.6-6.1-13.6-13.7c0-4,1.8-7.9,4.9-10.5c15.8-12.5,32.6-23.7,50.2-33.6
		c6.9-3.1,15,0,18.1,6.9c2.9,6.5,0.4,14.1-5.9,17.6c-15.7,8.9-30.7,19-45,30.1C256.8,654.6,253.7,655.7,250.5,655.7z"/>
	<path class="st0" d="M593.7,526.2c5.4,5.1,11.7,2.9,17.5-2.6c39.5-37.7,81.5-96.9,95.4-127.6c3-6.6,9-10.2,15.5-7.6
		c7.6,3.1,7.5,16.2,0.6,30.4c-18.3,37.6-43.6,79-93.7,130.9c-4.2,4-4.4,10.6-0.5,14.8c0.2,0.2,0.5,0.5,0.7,0.7
		c4.4,4,11.6,3.7,18.3-3.1c26-26.5,43.5-47,58.5-68.3c3.8-5.6,8.5-7.8,13.1-6.8c6.6,1.3,7.6,7.6,5.6,15.2
		c-3.3,12.3-37.8,57.5-51.5,72.8c-37.1,41.4-74.2,64.1-145.6,101.2c-24.9,13.1-43.6,25.3-54.9,44.4c-10.3,17.3-13.4,23-14.4,25.2
		c-4.2,8.5-0.8,18.8,7.6,23.1c8.4,4,18.4,0.5,22.4-7.9c0.1-0.3,0.3-0.6,0.4-0.8c0-0.2-0.5,0.3,12.9-22.4
		c10.1-16.2,24.7-29.1,42.1-37.1c71.4-32.5,100.7-58.3,142.1-99.7c18.9-18.9,45-59.4,52.2-71.4c20-33.6,9.5-62.4-8.5-67.3
		c-1.2-0.3-2-1.5-1.7-2.8c0-0.2,0.1-0.4,0.2-0.6c14-23.9,20.3-40.4,22.9-53.2c3.5-17.4-1.4-38.5-25.3-43.6c-1.2-0.3-2-1.5-1.7-2.8
		c0,0,0,0,0-0.1c1.5-5.5,3-12.5,4-17c5-22.6-9.3-43-26.4-46.7c-11.2-2.5-22.9-0.1-32.2,6.7c-1.3,0.9-3.1,0.7-4.2-0.5
		c-4.5-5.1-11-8.1-17.8-8.3c-15-0.3-29.7,4.3-40.4,27.3c-7.7,16.4-19.2,38.5-52.8,75.8c-31.2,34.6-74.5,68.3-101.3,85.8
		c-4.7,3.1-11.3,2.4-10.5-3.9c1.2-10,12-77.3,13.8-97.1c3-32.2-14.3-47-33.8-49.6c-16-2.2-40.2,2.4-53.5,38.8
		c-7.8,21.3-24,56.4-37.8,112.9c-9.7,39.7-11.3,86.1-2.4,139.3c0.6,3.2-0.1,6.5-1.8,9.3C316.5,649,301,671.9,292.3,692
		c-3.6,8-0.5,17.5,7.1,21.9c8.1,4.5,18.4,1.5,22.8-6.7c0.2-0.3,0.3-0.6,0.5-0.9c5.2-10.9,15.7-31.3,19.9-39.7
		c7.2-14.8,12-24.5,14-30.6c1.8-5.6,2.8-12.1-0.4-26.8c-5.4-24.8-7.3-71.4,2.8-112.5c11-42.5,24.5-84.4,40.2-125.4
		c4.1-10.1,9.9-13.2,15.7-12.7s16.8,3.3,13.6,23.8c-5.6,36.8-13.6,83.6-16.3,99.3c-1.3,7.7-2.8,25.7,11.5,34
		c11.1,6.4,23.3,2.8,36.8-6.2c30.4-20.3,82.8-61.6,115.7-98.5c34.5-38.8,45.5-61.9,54.4-82.8c4-9.5,14.5-9.5,18.1-8.4
		c3.7,1.1,8.1,6,5,16.5c-7.7,25.5-39.2,83.9-99.9,138.7c-6.9,6.2-5.9,13.6-2.4,17.4s9.7,6.1,16.8,0c54.6-46.5,85.8-102.2,99.8-131.9
		c4.7-9.9,8.7-20.1,12-30.6c3-8.6,9.6-11.7,14.3-10.8c6.6,1.4,11,8.2,8.9,19.4c-3.4,14.3-8.4,28.2-14.9,41.5
		c-17.5,37.1-54.5,86.9-94.3,129.5c-4.6,4.1-5.1,11.2-1,15.8C593.1,525.7,593.4,525.9,593.7,526.2z"/>
	<path class="st0" d="M346.9,341.2c2.1-1.9,1.3-4.2,0.7-6.1c-2.9-9.4-19.7-48.6-24.1-56.5c-2.2-4-5-4.5-8-3.4
		c-3.9,1.5-8.8,5.2-16.3,11.7s-11.7,10.9-13.7,14.6c-1.5,2.9-1.4,5.7,2.3,8.4c7.2,5.4,44,27.1,52.9,31.4
		C342.4,342.1,344.7,343.2,346.9,341.2L346.9,341.2z"/>
	<path class="st0" d="M649.6,688.5c-2.8,0.2-3.6,2.6-4.3,4.4c-3.4,9.2-13.9,50.6-15.2,59.5c-0.7,4.5,1.2,6.6,4.3,7.5
		c4,1.2,10.1,1.3,20.1,0.6s15.9-1.5,19.8-3.3c3-1.3,4.5-3.7,3.3-8c-2.5-8.7-18.5-48.2-23-57C653.6,690.6,652.5,688.3,649.6,688.5
		L649.6,688.5z"/>
	<path class="st0" d="M673.5,669.3c-1.3,2.5,0.3,4.4,1.6,6c6.1,7.7,36,38.2,43,43.9c3.5,2.9,6.3,2.4,8.7,0.2c3.1-2.8,6.4-8,11-16.8
		c4.6-8.8,7-14.4,7.5-18.6c0.4-3.2-0.8-5.8-5.2-7c-8.7-2.4-50.8-9.3-60.6-9.9C677.3,667,674.8,666.8,673.5,669.3L673.5,669.3z"/>
	<path class="st0" d="M332.4,366.8c-0.5-2.8-3-3.3-4.9-3.8c-9.6-2.4-51.8-8.3-60.8-8.6c-4.5-0.2-6.5,2-7,5.2
		c-0.8,4.1-0.2,10.2,1.6,20c1.8,9.8,3.3,15.7,5.4,19.3c1.6,2.8,4.2,4.1,8.4,2.4c8.4-3.4,46-23.5,54.1-29.1c1.6-1.1,3.8-2.5,3.3-5.2
		V366.8z"/>
	
		<ellipse transform="matrix(0.9239 -0.3827 0.3827 0.9239 -305.1009 264.3747)" class="st0" cx="512" cy="899.1" rx="15.2" ry="15.2"/>
	
		<ellipse transform="matrix(0.3827 -0.9239 0.9239 0.3827 200.6828 550.123)" class="st0" cx="512" cy="124.9" rx="15.2" ry="15.2"/>
	<circle class="st0" cx="612.2" cy="885.9" r="15.2"/>
	<circle class="st0" cx="411.8" cy="138.1" r="15.2"/>
	<circle class="st0" cx="705.6" cy="847.3" r="15.2"/>
	
		<ellipse transform="matrix(0.1602 -0.9871 0.9871 0.1602 92.9864 462.7775)" class="st0" cx="318.5" cy="176.7" rx="15.2" ry="15.2"/>
	<circle class="st0" cx="785.7" cy="785.7" r="15.2"/>
	<circle class="st0" cx="238.3" cy="238.3" r="15.2"/>
	<circle class="st0" cx="847.3" cy="705.6" r="15.2"/>
	<circle class="st0" cx="176.7" cy="318.4" r="15.2"/>
	<circle class="st0" cx="885.9" cy="612.2" r="15.2"/>
	<circle class="st0" cx="138.1" cy="411.8" r="15.2"/>
	<circle class="st0" cx="899.1" cy="512" r="15.2"/>
	<circle class="st0" cx="124.9" cy="512" r="15.2"/>
	<circle class="st0" cx="885.9" cy="411.8" r="15.2"/>
	<circle class="st0" cx="138.1" cy="612.2" r="15.2"/>
	<circle class="st0" cx="847.3" cy="318.4" r="15.2"/>
	<circle class="st0" cx="176.7" cy="705.6" r="15.2"/>
	<circle class="st0" cx="785.7" cy="238.3" r="15.2"/>
	<circle class="st0" cx="238.3" cy="785.7" r="15.2"/>
	<circle class="st0" cx="705.6" cy="176.7" r="15.2"/>
	
		<ellipse transform="matrix(0.9239 -0.3827 0.3827 0.9239 -299.9987 186.3771)" class="st0" cx="318.5" cy="847.3" rx="15.2" ry="15.2"/>
	<circle class="st0" cx="612.2" cy="138.1" r="15.2"/>
	<circle class="st0" cx="411.8" cy="885.9" r="15.2"/>
</g>
</svg>
