<svg id="Layer_2" data-name="Layer 2" xmlns="http://www.w3.org/2000/svg" viewBox="0 0 1200 476"><defs><style>.cls-1,.cls-2{fill:#28646e;}.cls-1,.cls-3{fill-rule:evenodd;}.cls-3{fill:#fff;}</style></defs><title>LikeCoin_PressKit_1</title><path class="cls-1" d="M900.61,290.89l-29.14-.12c-3.6,0-5.65-2.07-5.63-5.67L866.1,218a2.58,2.58,0,0,1,2.84-2.82l4.89,0a2.58,2.58,0,0,1,2.82,2.84l-.24,60.83a2.56,2.56,0,0,0,2.81,2.83l21.42.08a2.57,2.57,0,0,1,2.82,2.84v3.48a2.58,2.58,0,0,1-2.84,2.82"/><path class="cls-1" d="M963.22,291.13h-3.34a2.26,2.26,0,0,1-2-1.16,1.16,1.16,0,0,0-1.8-.52,21.23,21.23,0,0,1-11.18,2.9c-12.71,0-21.14-9.84-21.1-20.88s8.56-20.76,21.27-20.71a22.93,22.93,0,0,1,9.49,2.09c1,.52,1.8-.25,1.8-1.53,0-5.78-4.06-11.71-11.25-11.73a22,22,0,0,0-10.67,2.65c-1.67.89-2.69.25-3.59-1.3l-1.65-3a2.88,2.88,0,0,1,1.42-3.85,29,29,0,0,1,14.53-3.67c12.7,0,21.14,9.84,21.1,20.88l-.15,37a2.56,2.56,0,0,1-2.83,2.81M945,259.86c-7.19,0-11.32,5.86-11.34,11.64s4.06,11.7,11.25,11.73,11.32-5.86,11.34-11.64-4.06-11.7-11.25-11.73"/><path class="cls-1" d="M1032.41,291.4h-4.23a2.58,2.58,0,0,1-2.82-2.84l.15-37c0-5.78-4.06-11.7-11.25-11.73s-11.32,5.86-11.35,11.64l-.14,37a2.58,2.58,0,0,1-2.84,2.82l-4.23,0a2.57,2.57,0,0,1-2.82-2.84l.21-53.66a2.57,2.57,0,0,1,2.84-2.81h3.34a2.28,2.28,0,0,1,2.05,1.16,1.16,1.16,0,0,0,1.79.52,21.27,21.27,0,0,1,11.18-2.91c12.71.05,21.15,9.84,21.1,20.89l-.14,37a2.57,2.57,0,0,1-2.84,2.81"/><path class="cls-1" d="M1098.32,291.66H1095a2.26,2.26,0,0,1-2-1.16,1.16,1.16,0,0,0-1.8-.52,21.22,21.22,0,0,1-11.18,2.91c-12.71-.05-21.14-9.85-21.1-20.89l.08-20.28c0-11,8.55-20.77,21.27-20.72a24.09,24.09,0,0,1,9.23,2.09c1.15.52,2.06-.12,2.06-1.15l0-13.08a2.57,2.57,0,0,1,2.84-2.81l4.23,0a2.57,2.57,0,0,1,2.82,2.83l-.28,70A2.56,2.56,0,0,1,1098.32,291.66Zm-6.91-39.82c0-5.78-4.06-11.7-11.25-11.73s-11.32,5.86-11.34,11.64l-.08,20.28c0,5.78,4.06,11.7,11.25,11.73s11.32-5.86,11.34-11.64Z"/><path class="cls-1" d="M532.35,274.94l-26.75-.11a1.46,1.46,0,0,1-1.6-1.61l.22-56.26a2.93,2.93,0,0,0-3.2-3.23l-9.21,0a2.92,2.92,0,0,0-3.23,3.2l-.26,66c0,4.1,2.31,6.45,6.41,6.46l37.56.15a2.92,2.92,0,0,0,3.23-3.2l0-8.13a2.92,2.92,0,0,0-3.2-3.23"/><path class="cls-1" d="M576.58,243.32l-10.34,0a2.89,2.89,0,0,0-3.14,3.2L563,266.82v2.77L563,286.4a2.88,2.88,0,0,0,3.11,3.23l10.34,0a2.89,2.89,0,0,0,3.14-3.2l.06-16.81v-2.78l.08-20.33a2.88,2.88,0,0,0-3.11-3.23"/><path class="cls-1" d="M566.65,232.88c.88-.52.74-1.44.65-2.15-.44-3.56-3.87-18.74-4.93-21.86-.53-1.56-1.5-2-2.65-1.73-1.52.28-3.5,1.27-6.62,3.13s-4.91,3.14-5.88,4.35a2.15,2.15,0,0,0,.28,3.15c2.24,2.41,14,12.61,16.92,14.68.59.42,1.33,1,2.21.44Z"/><path class="cls-1" d="M575.86,212.86c.9.49,1.61-.1,2.19-.54A185.87,185.87,0,0,0,594.3,196.9c1.07-1.26.9-2.28.13-3.16-1-1.16-2.88-2.37-6.07-4.09s-5.22-2.61-6.75-2.82c-1.16-.17-2.11.26-2.57,1.85-.92,3.15-3.67,18.47-3.95,22-.05.72-.15,1.64.75,2.12Z"/><path class="cls-1" d="M660.88,290l-9.21,0a2.92,2.92,0,0,1-3.2-3.23l0-13.6a10.68,10.68,0,0,0-21.35-.08l0,13.6a2.92,2.92,0,0,1-3.23,3.2l-9.21,0a2.94,2.94,0,0,1-3.21-3.23l.27-67.79a2.92,2.92,0,0,1,3.23-3.2l9.21,0a2.94,2.94,0,0,1,3.21,3.23l-.12,28.75a2.19,2.19,0,0,0,2.33,2.2c1.28,0,3.08-1.15,4.11-2.76l12.47-18.22c1.5-2.06,2.79-3.06,4.84-3.05l10.7,0c2.34,0,3.5,1.91,2.18,3.95l-14,18.81c-.73,1.16-.88,2.19.87,3.07a23.91,23.91,0,0,1,13.37,21.55l-.06,13.6a2.92,2.92,0,0,1-3.23,3.2"/><path class="cls-1" d="M713,224.46c-15-.05-25,10.7-25,23L687.87,268c0,12.32,9.87,23.15,24.82,23.21,13.61.05,18.87-6.36,21.55-11.71.47-.94.84-3-.82-4.15L726.94,271c-1.52-1-3.18-.84-4.16.68-2.65,4.42-5.72,6.37-10,6.35a9.86,9.86,0,0,1-10.07-10v-2.49a1.39,1.39,0,0,1,1.53-1.52l27.4.11c3.88,0,6.1-2.19,6.12-6.07l0-10.38C737.82,235.36,727.89,224.52,713,224.46Zm10,25.65a1.38,1.38,0,0,1-1.53,1.51l-17.16-.06a1.38,1.38,0,0,1-1.51-1.53v-2.5a10.1,10.1,0,0,1,20.2.08Z"/><path class="cls-1" d="M812.41,239.87c-2.8-6.83-10.24-14.4-23.47-14.45-.58,0-.11,0-.68.07v-.07a23.59,23.59,0,0,0-11,2.6c-.46.21-.91.43-1.36.66s-1.08.14-1.66-.68a2.82,2.82,0,0,0-2.5-1.26l-5.42,0a2.78,2.78,0,0,0-3.07,3.05l-.08,18.77-.07,19.93L763,287.25a2.79,2.79,0,0,0,3,3.07h.21l7.53,0h.8c2.08,0,3.28-1.1,3.29-3l.07-18.78L778,248.6c0-5.5,5-10,10.88-10,6.54,0,9.67,3.28,12.5,8.16.92,1.6,2.81,1.68,4.45.71L811.5,244c1.79-1.11,1.35-3.2.91-4.17"/><rect class="cls-2" x="98.57" y="99.32" width="277.36" height="277.36" rx="38.26"/><path class="cls-3" d="M228.48,207.49a4.17,4.17,0,0,1-2.76-7.3c11.78-10.4,17-19,17.92-20.57,3.46-6,9-9.17,14.89-8.38a4.18,4.18,0,0,1-1.13,8.28c-3.41-.46-5.7,2.82-6.52,4.25-1,1.81-6.88,11.42-19.64,22.67a4.13,4.13,0,0,1-2.76,1.05"/><path class="cls-3" d="M158.22,278.23a4.17,4.17,0,0,1-2.67-7.38,117.54,117.54,0,0,1,15.36-10.27,4.17,4.17,0,0,1,3.73,7.47,109.65,109.65,0,0,0-13.75,9.21,4.17,4.17,0,0,1-2.67,1"/><path class="cls-3" d="M263.15,238.63c1.66,1.55,3.58.89,5.35-.8,12.09-11.56,24.9-29.62,29.16-39,.91-2,2.76-3.12,4.74-2.33,2.33.94,2.29,4.94.19,9.29-5.57,11.5-13.34,24.16-28.65,40a3.18,3.18,0,0,0,.07,4.72c1.35,1.22,3.55,1.13,5.59-.95a170.69,170.69,0,0,0,17.91-20.88c1.17-1.72,2.59-2.37,4-2.09,2,.4,2.33,2.33,1.72,4.65-1,3.76-11.56,17.61-15.74,22.27-11.33,12.65-22.68,19.58-44.51,30.93-7.62,3.95-13.32,7.75-16.77,13.58-3.15,5.3-4.08,7-4.4,7.71a5.29,5.29,0,0,0,2.32,7.06,5,5,0,0,0,2.22.5,5.12,5.12,0,0,0,4.74-3.17c0-.07-.16.08,4-6.86a29.6,29.6,0,0,1,12.85-11.33c21.83-10,30.77-17.83,43.45-30.5,5.78-5.79,13.77-18.18,15.95-21.84,6.1-10.27,2.89-19.08-2.61-20.57a.7.7,0,0,1-.44-1c4.26-7.31,6.2-12.35,7-16.27,1.08-5.32-.42-11.78-7.72-13.34a.71.71,0,0,1-.52-.88c.46-1.68.91-3.81,1.23-5.2,1.53-6.91-2.84-13.17-8.09-14.29a12.16,12.16,0,0,0-9.84,2.05,1,1,0,0,1-1.27-.16,7.59,7.59,0,0,0-5.45-2.53c-4.57-.09-9.06,1.32-12.36,8.34-2.35,5-5.86,11.78-16.13,23.17-9.53,10.57-22.8,20.87-31,26.25-1.44.94-3.45.72-3.21-1.21.38-3,3.67-23.63,4.23-29.69.9-9.85-4.4-14.34-10.33-15.15-4.89-.66-12.31.75-16.38,11.89-2.38,6.52-7.35,17.24-11.56,34.51-2.95,12.14-3.45,26.31-.74,42.58a4.07,4.07,0,0,1-.54,2.83c-3.23,5.34-8,12.36-10.63,18.48a5.26,5.26,0,0,0,2.18,6.7,5.11,5.11,0,0,0,7.11-2.32c1.57-3.32,4.81-9.56,6.08-12.14a91.75,91.75,0,0,0,4.27-9.37c.55-1.72.86-3.69-.12-8.19-1.66-7.59-2.24-21.84.84-34.39a353.34,353.34,0,0,1,12.31-38.35c1.24-3.08,3-4,4.77-3.88s5.14,1,4.17,7.28c-1.73,11.25-4.17,25.52-5,30.33-.4,2.37-.85,7.87,3.5,10.4,3.4,2,7.13.87,11.26-1.88,9.3-6.2,25.31-18.83,35.37-30.13,10.57-11.86,13.93-18.92,16.65-25.31,1.23-2.91,4.41-2.89,5.53-2.57s2.49,1.85,1.53,5.06c-2.34,7.79-12,25.66-30.55,42.41-2.11,1.9-1.81,4.14-.74,5.31s3,1.88,5.12,0A122.65,122.65,0,0,0,285.78,188a72.9,72.9,0,0,0,3.67-9.34c.91-2.65,2.95-3.59,4.36-3.29,2,.43,3.37,2.51,2.73,5.94A60,60,0,0,1,292,194c-5.35,11.36-16.65,26.56-28.84,39.61a3.42,3.42,0,0,0,0,5"/><path class="cls-3" d="M187.69,182.07c.64-.57.39-1.3.21-1.87-.9-2.87-6-14.87-7.37-17.28a1.8,1.8,0,0,0-2.44-1c-1.21.46-2.7,1.57-5,3.58s-3.58,3.33-4.2,4.48a1.81,1.81,0,0,0,.71,2.55c2.21,1.65,13.44,8.29,16.17,9.56.55.25,1.25.59,1.89,0Z"/><path class="cls-3" d="M183.31,189.93c-.15-.85-.9-1-1.49-1.15-2.93-.73-15.84-2.59-18.59-2.7-1.39-.05-2,.59-2.15,1.55-.24,1.28-.07,3.13.46,6.13a19.34,19.34,0,0,0,1.64,5.91,1.81,1.81,0,0,0,2.55.73c2.56-1,14.07-7.18,16.57-8.86.5-.33,1.16-.74,1-1.59Z"/><path class="cls-3" d="M280.25,288.26c-.86.06-1.1.8-1.31,1.36-1,2.83-4.25,15.47-4.65,18.2a1.82,1.82,0,0,0,1.32,2.31,19.33,19.33,0,0,0,6.13.18c3-.2,4.87-.47,6.06-1a1.81,1.81,0,0,0,1-2.46c-.76-2.64-5.65-14.74-7.05-17.41-.28-.53-.61-1.23-1.47-1.17Z"/><path class="cls-3" d="M287.55,282.4c-.4.77.1,1.35.48,1.82,1.88,2.35,11,11.67,13.13,13.43a1.82,1.82,0,0,0,2.66.07,19.38,19.38,0,0,0,3.34-5.14c1.4-2.7,2.13-4.41,2.28-5.7.13-1-.24-1.76-1.58-2.13-2.65-.73-15.53-2.83-18.53-3-.6,0-1.38-.11-1.78.65Z"/></svg>