<?xml version="1.0" encoding="utf-8"?>
<!-- Generator: Adobe Illustrator 24.2.3, SVG Export Plug-In . SVG Version: 6.00 Build 0)  -->
<svg version="1.1" id="Layer_2_1_" xmlns="http://www.w3.org/2000/svg" xmlns:xlink="http://www.w3.org/1999/xlink" x="0px" y="0px"
	 viewBox="0 0 1200 476" style="enable-background:new 0 0 1200 476;" xml:space="preserve">
<style type="text/css">
	.st0{fill-rule:evenodd;clip-rule:evenodd;}
	.st1{fill-rule:evenodd;clip-rule:evenodd;fill:#FFFFFF;}
</style>
<path class="st0" d="M900.6,290.9l-29.1-0.1c-3.6,0-5.7-2.1-5.6-5.7l0.3-67.1c-0.1-1.4,0.9-2.7,2.3-2.8c0.2,0,0.4,0,0.5,0h4.9
	c1.4-0.1,2.7,0.9,2.8,2.3c0,0.2,0,0.4,0,0.5l-0.2,60.8c-0.2,1.4,0.9,2.7,2.3,2.8c0.2,0,0.4,0,0.5,0l21.4,0.1
	c1.4-0.1,2.7,0.9,2.8,2.3c0,0.2,0,0.4,0,0.5v3.5c0.1,1.4-0.9,2.7-2.3,2.8C901,290.9,900.8,290.9,900.6,290.9"/>
<path class="st0" d="M963.2,291.1h-3.3c-0.8,0-1.6-0.4-2-1.2c-0.2-0.6-0.9-0.9-1.5-0.7c-0.1,0-0.2,0.1-0.3,0.2
	c-3.4,2-7.3,3-11.2,2.9c-12.7,0-21.1-9.8-21.1-20.9s8.6-20.8,21.3-20.7c3.3,0,6.5,0.7,9.5,2.1c1,0.5,1.8-0.2,1.8-1.5
	c0-5.8-4.1-11.7-11.2-11.7c-3.7,0-7.4,0.9-10.7,2.6c-1.7,0.9-2.7,0.2-3.6-1.3l-1.7-3c-0.7-1.4-0.1-3.2,1.4-3.8c0,0,0,0,0,0
	c4.4-2.5,9.4-3.7,14.5-3.7c12.7,0,21.1,9.8,21.1,20.9l-0.2,37c0.1,1.4-0.9,2.7-2.3,2.8C963.6,291.1,963.5,291.1,963.2,291.1
	 M945,259.9c-7.2,0-11.3,5.9-11.3,11.6s4.1,11.7,11.2,11.7s11.3-5.9,11.3-11.6S952.2,259.9,945,259.9"/>
<path class="st0" d="M1032.4,291.4h-4.2c-1.4,0.1-2.7-0.9-2.8-2.3c0-0.2,0-0.4,0-0.5l0.2-37c0-5.8-4.1-11.7-11.2-11.7
	s-11.3,5.9-11.3,11.6l-0.1,37c0.1,1.4-0.9,2.7-2.3,2.8c-0.2,0-0.4,0-0.5,0h-4.2c-1.4,0.1-2.7-0.9-2.8-2.3c0-0.2,0-0.4,0-0.5
	l0.2-53.7c-0.1-1.4,0.9-2.7,2.3-2.8c0.2,0,0.4,0,0.5,0h3.3c0.8,0,1.6,0.4,2,1.2c0.2,0.6,0.9,0.9,1.5,0.7c0.1,0,0.2-0.1,0.3-0.2
	c3.4-2,7.3-3,11.2-2.9c12.7,0.1,21.2,9.8,21.1,20.9l-0.1,37c0.1,1.4-0.9,2.7-2.3,2.8C1032.8,291.5,1032.6,291.5,1032.4,291.4"/>
<path class="st0" d="M1098.3,291.7h-3.3c-0.8,0-1.6-0.4-2-1.2c-0.2-0.6-0.9-0.9-1.5-0.7c-0.1,0-0.2,0.1-0.3,0.2
	c-3.4,2-7.3,3-11.2,2.9c-12.7,0-21.1-9.9-21.1-20.9l0.1-20.3c0-11,8.6-20.8,21.3-20.7c3.2,0.1,6.3,0.8,9.2,2.1
	c1.2,0.5,2.1-0.1,2.1-1.1v-13.1c-0.1-1.4,0.9-2.7,2.3-2.8c0.2,0,0.4,0,0.5,0h4.2c1.4-0.1,2.7,0.9,2.8,2.3c0,0.2,0,0.4,0,0.5l-0.3,70
	c0.1,1.4-0.9,2.7-2.3,2.8C1098.7,291.7,1098.5,291.7,1098.3,291.7z M1091.4,251.8c0-5.8-4.1-11.7-11.2-11.7s-11.3,5.9-11.3,11.6
	l-0.1,20.3c0,5.8,4.1,11.7,11.2,11.7s11.3-5.9,11.3-11.6L1091.4,251.8z"/>
<path class="st0" d="M532.3,274.9l-26.8-0.1c-0.8,0.1-1.5-0.5-1.6-1.3c0-0.1,0-0.2,0-0.3l0.2-56.3c0.2-1.6-1-3.1-2.6-3.2
	c-0.2,0-0.4,0-0.6,0h-9.2c-1.6-0.2-3,1-3.2,2.6c0,0.2,0,0.4,0,0.6l-0.3,66c0,4.1,2.3,6.5,6.4,6.5l37.6,0.1c1.6,0.2,3-1,3.2-2.6
	c0-0.2,0-0.4,0-0.6v-8.1c0.2-1.6-1-3-2.6-3.2C532.7,275,532.5,275,532.3,274.9"/>
<path class="st0" d="M576.6,243.3h-10.3c-1.6-0.1-3,1-3.1,2.6c0,0.2,0,0.4,0,0.6l-0.1,20.3v2.8v16.8c-0.2,1.6,0.9,3,2.5,3.2
	c0.2,0,0.4,0,0.6,0h10.3c1.6,0.1,3-1,3.1-2.6c0-0.2,0-0.4,0-0.6l0.1-16.8v-2.8l0.1-20.3c0.2-1.6-0.9-3-2.5-3.2
	C577,243.3,576.8,243.3,576.6,243.3"/>
<path class="st0" d="M566.7,232.9c0.9-0.5,0.7-1.4,0.7-2.1c-0.4-3.6-3.9-18.7-4.9-21.9c-0.5-1.6-1.5-2-2.7-1.7
	c-1.5,0.3-3.5,1.3-6.6,3.1s-4.9,3.1-5.9,4.4c-0.8,0.9-0.7,2.2,0.1,3c0,0,0.1,0.1,0.1,0.1c2.2,2.4,14,12.6,16.9,14.7
	C565,232.9,565.8,233.5,566.7,232.9L566.7,232.9z"/>
<path class="st0" d="M575.9,212.9c0.9,0.5,1.6-0.1,2.2-0.5c5.7-4.8,11.1-10,16.2-15.4c1.1-1.3,0.9-2.3,0.1-3.2
	c-1-1.2-2.9-2.4-6.1-4.1s-5.2-2.6-6.8-2.8c-1.2-0.2-2.1,0.3-2.6,1.9c-0.9,3.1-3.7,18.5-4,22C575,211.4,574.9,212.3,575.9,212.9
	L575.9,212.9z"/>
<path class="st0" d="M660.9,290h-9.2c-1.6,0.2-3-1-3.2-2.6c0-0.2,0-0.4,0-0.6v-13.6c-0.2-5.9-5.1-10.5-11-10.4
	c-5.6,0.2-10.2,4.7-10.4,10.3v13.6c0.2,1.6-1,3-2.6,3.2c-0.2,0-0.4,0-0.6,0h-9.2c-1.6,0.2-3.1-1-3.2-2.6c0-0.2,0-0.4,0-0.6l0.3-67.8
	c-0.2-1.6,1-3,2.6-3.2c0.2,0,0.4,0,0.6,0h9.2c1.6-0.2,3.1,1,3.2,2.6c0,0.2,0,0.4,0,0.6l-0.1,28.8c0,1.2,1,2.2,2.2,2.2
	c0.1,0,0.1,0,0.2,0c1.3,0,3.1-1.1,4.1-2.8l12.5-18.2c1.5-2.1,2.8-3.1,4.8-3.1h10.7c2.3,0,3.5,1.9,2.2,3.9l-14,18.8
	c-0.7,1.2-0.9,2.2,0.9,3.1c8.2,4,13.4,12.4,13.4,21.5l-0.1,13.6c0.2,1.6-1,3-2.6,3.2C661.3,290,661.1,290,660.9,290"/>
<path class="st0" d="M713,224.5c-15-0.1-25,10.7-25,23l-0.1,20.5c0,12.3,9.9,23.1,24.8,23.2c13.6,0,18.9-6.4,21.5-11.7
	c0.5-0.9,0.8-3-0.8-4.1l-6.5-4.4c-1.5-1-3.2-0.8-4.2,0.7c-2.7,4.4-5.7,6.4-10,6.4c-5.4,0.1-10-4.2-10.1-9.6c0-0.1,0-0.2,0-0.4v-2.5
	c-0.1-0.8,0.5-1.4,1.2-1.5c0.1,0,0.2,0,0.3,0l27.4,0.1c3.9,0,6.1-2.2,6.1-6.1v-10.4C737.8,235.4,727.9,224.5,713,224.5z M723,250.1
	c0.1,0.8-0.5,1.4-1.2,1.5c-0.1,0-0.2,0-0.3,0l-17.2-0.1c-0.8,0.1-1.4-0.5-1.5-1.2c0-0.1,0-0.2,0-0.3v-2.5c0-5.6,4.6-10.1,10.1-10.1
	c5.6,0,10.1,4.6,10.1,10.1l0,0V250.1z"/>
<path class="st0" d="M812.4,239.9c-2.8-6.8-10.2-14.4-23.5-14.4c-0.6,0-0.1,0-0.7,0.1v-0.1c-3.8,0-7.6,0.9-11,2.6
	c-0.5,0.2-0.9,0.4-1.4,0.7s-1.1,0.1-1.7-0.7c-0.6-0.8-1.5-1.3-2.5-1.3h-5.4c-1.5-0.2-2.9,0.9-3.1,2.5c0,0.2,0,0.4,0,0.6l-0.1,18.8
	l-0.1,19.9l-0.1,18.8c-0.2,1.5,1,2.9,2.5,3.1c0.2,0,0.3,0,0.5,0h0.2h7.5h0.8c2.1,0,3.3-1.1,3.3-3l0.1-18.8l0.1-19.9
	c0-5.5,5-10,10.9-10c6.5,0,9.7,3.3,12.5,8.2c0.9,1.6,2.8,1.7,4.5,0.7l5.7-3.5C813.3,242.9,812.8,240.8,812.4,239.9"/>
<path d="M136.8,99.3h200.8c21.1,0,38.3,17.1,38.3,38.3v200.8c0,21.1-17.1,38.3-38.3,38.3H136.8c-21.1,0-38.3-17.1-38.3-38.3V137.6
	C98.6,116.4,115.7,99.3,136.8,99.3z"/>
<path class="st1" d="M228.5,207.5c-2.3,0-4.2-1.9-4.2-4.2c0-1.2,0.5-2.3,1.4-3.1c11.8-10.4,17-19,17.9-20.6c3.5-6,9-9.2,14.9-8.4
	c2.3,0.4,3.8,2.5,3.4,4.8c-0.4,2.2-2.4,3.7-4.6,3.5c-3.4-0.5-5.7,2.8-6.5,4.2c-1,1.8-6.9,11.4-19.6,22.7
	C230.5,207.1,229.5,207.5,228.5,207.5"/>
<path class="st1" d="M158.2,278.2c-2.3,0-4.2-1.9-4.2-4.2c0-1.2,0.6-2.4,1.5-3.2c4.8-3.8,10-7.3,15.4-10.3c2.1-1,4.6-0.2,5.6,1.9
	c1,2.1,0.2,4.6-1.9,5.6l0,0c-4.8,2.7-9.4,5.8-13.8,9.2C160.1,277.9,159.2,278.3,158.2,278.2"/>
<path class="st1" d="M263.1,238.6c1.7,1.6,3.6,0.9,5.4-0.8c12.1-11.6,24.9-29.6,29.2-39c0.9-2,2.8-3.1,4.7-2.3
	c2.3,0.9,2.3,4.9,0.2,9.3c-5.6,11.5-13.3,24.2-28.6,40c-1.3,1.2-1.4,3.2-0.2,4.5c0.1,0.1,0.2,0.2,0.2,0.2c1.4,1.2,3.5,1.1,5.6-0.9
	c6.5-6.5,12.5-13.4,17.9-20.9c1.2-1.7,2.6-2.4,4-2.1c2,0.4,2.3,2.3,1.7,4.6c-1,3.8-11.6,17.6-15.7,22.3
	c-11.3,12.7-22.7,19.6-44.5,30.9c-7.6,4-13.3,7.8-16.8,13.6c-3.1,5.3-4.1,7-4.4,7.7c-1.3,2.6-0.3,5.7,2.3,7.1
	c0.7,0.3,1.5,0.5,2.2,0.5c2.1,0,3.9-1.2,4.7-3.2c0-0.1-0.2,0.1,4-6.9c3.1-5,7.5-8.9,12.9-11.3c21.8-10,30.8-17.8,43.4-30.5
	c5.8-5.8,13.8-18.2,16-21.8c6.1-10.3,2.9-19.1-2.6-20.6c-0.4-0.1-0.6-0.5-0.5-0.9c0,0,0-0.1,0.1-0.1c4.3-7.3,6.2-12.4,7-16.3
	c1.1-5.3-0.4-11.8-7.7-13.3c-0.4-0.1-0.6-0.5-0.5-0.9c0,0,0,0,0,0c0.5-1.7,0.9-3.8,1.2-5.2c1.5-6.9-2.8-13.2-8.1-14.3
	c-3.4-0.8-7,0-9.8,2.1c-0.4,0.3-0.9,0.2-1.3-0.2c-1.4-1.6-3.4-2.5-5.5-2.5c-4.6-0.1-9.1,1.3-12.4,8.3c-2.4,5-5.9,11.8-16.1,23.2
	c-9.5,10.6-22.8,20.9-31,26.2c-1.4,0.9-3.4,0.7-3.2-1.2c0.4-3,3.7-23.6,4.2-29.7c0.9-9.9-4.4-14.3-10.3-15.1
	c-4.9-0.7-12.3,0.8-16.4,11.9c-2.4,6.5-7.4,17.2-11.6,34.5c-2.9,12.1-3.4,26.3-0.7,42.6c0.2,1,0,2-0.5,2.8
	c-3.2,5.3-8,12.4-10.6,18.5c-1.1,2.5-0.2,5.4,2.2,6.7c2.5,1.4,5.6,0.5,6.9-2c0.1-0.1,0.1-0.2,0.2-0.3c1.6-3.3,4.8-9.6,6.1-12.1
	c1.6-3,3-6.2,4.3-9.4c0.6-1.7,0.9-3.7-0.1-8.2c-1.7-7.6-2.2-21.8,0.8-34.4c3.4-13,7.5-25.8,12.3-38.3c1.2-3.1,3-4,4.8-3.9
	s5.1,1,4.2,7.3c-1.7,11.2-4.2,25.5-5,30.3c-0.4,2.4-0.9,7.9,3.5,10.4c3.4,2,7.1,0.9,11.3-1.9c9.3-6.2,25.3-18.8,35.4-30.1
	c10.6-11.9,13.9-18.9,16.6-25.3c1.2-2.9,4.4-2.9,5.5-2.6s2.5,1.9,1.5,5.1c-2.3,7.8-12,25.7-30.6,42.4c-2.1,1.9-1.8,4.1-0.7,5.3
	s3,1.9,5.1,0c12.9-11.2,23.3-24.9,30.5-40.4c1.4-3,2.7-6.1,3.7-9.3c0.9-2.6,3-3.6,4.4-3.3c2,0.4,3.4,2.5,2.7,5.9
	c-1,4.4-2.6,8.6-4.5,12.7c-5.4,11.4-16.6,26.6-28.8,39.6c-1.4,1.3-1.5,3.5-0.2,4.8C263,238.5,263.1,238.6,263.1,238.6"/>
<path class="st1" d="M187.7,182.1c0.6-0.6,0.4-1.3,0.2-1.9c-0.9-2.9-6-14.9-7.4-17.3c-0.4-0.9-1.4-1.4-2.3-1.1c0,0-0.1,0-0.1,0.1
	c-1.2,0.5-2.7,1.6-5,3.6s-3.6,3.3-4.2,4.5c-0.5,0.9-0.3,2,0.6,2.5c0,0,0.1,0,0.1,0.1c2.2,1.6,13.4,8.3,16.2,9.6
	C186.3,182.3,187,182.7,187.7,182.1L187.7,182.1z"/>
<path class="st1" d="M183.3,189.9c-0.1-0.9-0.9-1-1.5-1.1c-2.9-0.7-15.8-2.6-18.6-2.7c-1.4-0.1-2,0.6-2.1,1.6
	c-0.2,1.3-0.1,3.1,0.5,6.1c0.2,2,0.8,4,1.6,5.9c0.5,0.9,1.5,1.2,2.4,0.8c0,0,0.1,0,0.1-0.1c2.6-1,14.1-7.2,16.6-8.9
	C182.8,191.2,183.5,190.8,183.3,189.9L183.3,189.9z"/>
<path class="st1" d="M280.2,288.3c-0.9,0.1-1.1,0.8-1.3,1.4c-1,2.8-4.2,15.5-4.6,18.2c-0.3,1,0.2,2,1.2,2.3c0,0,0.1,0,0.1,0
	c2,0.4,4.1,0.4,6.1,0.2c3-0.2,4.9-0.5,6.1-1c0.9-0.4,1.4-1.4,1.1-2.3c0,0,0-0.1-0.1-0.1c-0.8-2.6-5.6-14.7-7-17.4
	C281.5,288.9,281.1,288.2,280.2,288.3L280.2,288.3z"/>
<path class="st1" d="M287.5,282.4c-0.4,0.8,0.1,1.4,0.5,1.8c1.9,2.4,11,11.7,13.1,13.4c0.7,0.8,1.8,0.8,2.6,0.2c0,0,0.1-0.1,0.1-0.1
	c1.4-1.5,2.5-3.3,3.3-5.1c1.4-2.7,2.1-4.4,2.3-5.7c0.1-1-0.2-1.8-1.6-2.1c-2.6-0.7-15.5-2.8-18.5-3
	C288.7,281.7,288,281.6,287.5,282.4L287.5,282.4z"/>
</svg>
